<svg xmlns="http://www.w3.org/2000/svg" id="canvas" viewBox="273.444 383.186 1555.147 165.014"><path d="M 349.96,387.53 C 349.33 386.84, 348.55 386.55, 346.92 386.34 C 345.29 386.13, 344.16 386.10, 341.82 386.47 C 339.48 386.84, 337.93 387.16, 335.21 388.18 C 332.49 389.20, 331.04 390.06, 328.22 391.57 C 325.41 393.07, 323.86 393.92, 321.12 395.72 C 318.37 397.52, 316.89 398.52, 314.50 400.56 C 312.12 402.60, 310.91 403.70, 309.19 405.91 C 307.47 408.12, 306.74 409.33, 305.89 411.62 C 305.05 413.91, 304.83 415.12, 304.95 417.36 C 305.08 419.60, 305.41 420.75, 306.54 422.82 C 307.66 424.89, 308.55 425.92, 310.57 427.71 C 312.59 429.49, 313.96 430.25, 316.64 431.75 C 319.32 433.24, 320.97 433.76, 323.97 435.19 C 326.98 436.62, 328.67 437.30, 331.69 438.89 C 334.71 440.47, 336.32 441.32, 339.07 443.11 C 341.82 444.91, 343.19 445.88, 345.44 447.86 C 347.68 449.84, 348.66 450.93, 350.30 453.01 C 351.93 455.10, 352.65 456.17, 353.61 458.26 C 354.57 460.36, 354.87 461.41, 355.10 463.48 C 355.33 465.55, 355.24 466.61, 354.75 468.63 C 354.25 470.65, 353.81 471.67, 352.62 473.58 C 351.42 475.50, 350.67 476.39, 348.76 478.21 C 346.86 480.02, 345.76 481.01, 343.09 482.65 C 340.41 484.28, 338.79 485.07, 335.39 486.37 C 331.99 487.68, 329.98 488.27, 326.11 489.18 C 322.23 490.09, 320.03 490.47, 316.01 490.92 C 311.99 491.38, 309.81 491.48, 306.00 491.46 C 302.19 491.44, 300.25 491.30, 296.98 490.82 C 293.71 490.34, 292.20 489.84, 289.64 489.06 C 287.07 488.28, 285.92 487.73, 284.15 486.91 C 282.38 486.10, 281.82 485.56, 280.77 484.97 C 279.73 484.38, 279.49 484.29, 278.93 483.97 C 278.36 483.64, 278.39 483.38, 277.94 483.35 C 277.50 483.32, 276.98 483.35, 276.71 483.80 C 276.44 484.25, 276.33 484.70, 276.60 485.58 C 276.88 486.47, 277.03 487.10, 278.09 488.24 C 279.15 489.37, 279.88 490.12, 281.90 491.26 C 283.93 492.41, 285.32 493.18, 288.23 493.97 C 291.15 494.75, 292.91 494.88, 296.47 495.20 C 300.03 495.51, 302.03 495.60, 306.02 495.53 C 310.02 495.47, 312.26 495.35, 316.46 494.89 C 320.65 494.42, 322.91 494.06, 327.00 493.20 C 331.09 492.33, 333.19 491.80, 336.90 490.55 C 340.60 489.29, 342.41 488.58, 345.52 486.91 C 348.63 485.25, 350.11 484.32, 352.45 482.22 C 354.80 480.12, 355.77 478.89, 357.25 476.41 C 358.73 473.92, 359.28 472.51, 359.87 469.81 C 360.45 467.11, 360.50 465.64, 360.19 462.91 C 359.88 460.17, 359.48 458.76, 358.31 456.14 C 357.15 453.51, 356.29 452.17, 354.35 449.78 C 352.41 447.38, 351.16 446.28, 348.62 444.15 C 346.08 442.02, 344.58 441.04, 341.66 439.13 C 338.73 437.23, 337.06 436.35, 333.99 434.64 C 330.93 432.92, 329.23 432.15, 326.34 430.56 C 323.46 428.97, 322.00 428.15, 319.58 426.69 C 317.15 425.22, 315.98 424.53, 314.21 423.23 C 312.44 421.93, 311.67 421.41, 310.72 420.19 C 309.77 418.96, 309.54 418.44, 309.46 417.11 C 309.39 415.77, 309.59 415.06, 310.36 413.50 C 311.13 411.94, 311.80 411.07, 313.33 409.31 C 314.87 407.54, 315.89 406.50, 318.02 404.68 C 320.15 402.86, 321.46 401.80, 324.00 400.20 C 326.54 398.60, 328.04 397.83, 330.71 396.67 C 333.38 395.51, 334.84 395.17, 337.35 394.39 C 339.85 393.61, 341.19 393.39, 343.23 392.78 C 345.28 392.16, 346.19 391.91, 347.56 391.31 C 348.93 390.71, 349.61 390.54, 350.09 389.78 C 350.57 389.03, 350.60 388.22, 349.96 387.53" style="stroke: black; fill: black;"/><path d="M 411.98,449.00 C 411.76 448.21, 411.32 447.84, 410.35 447.29 C 409.38 446.75, 408.72 446.45, 407.12 446.30 C 405.52 446.14, 404.39 446.14, 402.33 446.53 C 400.28 446.93, 399.16 447.34, 396.84 448.29 C 394.53 449.24, 393.21 449.77, 390.75 451.29 C 388.28 452.80, 386.91 453.77, 384.52 455.86 C 382.14 457.96, 380.90 459.25, 378.84 461.77 C 376.78 464.30, 375.69 465.71, 374.22 468.50 C 372.75 471.29, 372.07 472.85, 371.49 475.71 C 370.91 478.58, 370.84 480.16, 371.31 482.83 C 371.78 485.50, 372.35 486.88, 373.85 489.05 C 375.36 491.22, 376.48 492.23, 378.85 493.67 C 381.22 495.11, 382.71 495.71, 385.71 496.27 C 388.70 496.83, 390.47 496.70, 393.81 496.46 C 397.16 496.23, 398.95 495.88, 402.43 495.09 C 405.92 494.29, 408.02 493.63, 411.25 492.48 C 414.47 491.33, 416.26 490.70, 418.55 489.35 C 420.84 487.99, 422.04 486.79, 422.69 485.71 C 423.34 484.62, 423.01 484.08, 421.80 483.93 C 420.58 483.78, 419.07 484.23, 416.62 484.96 C 414.17 485.69, 412.60 486.54, 409.54 487.58 C 406.48 488.63, 404.52 489.47, 401.32 490.18 C 398.12 490.90, 396.46 491.07, 393.54 491.16 C 390.62 491.25, 389.14 491.05, 386.72 490.63 C 384.31 490.22, 383.21 489.96, 381.45 489.07 C 379.68 488.17, 378.93 487.57, 377.89 486.17 C 376.85 484.77, 376.48 483.91, 376.24 482.05 C 375.99 480.19, 376.11 479.08, 376.67 476.88 C 377.23 474.69, 377.77 473.41, 379.04 471.08 C 380.31 468.76, 381.19 467.41, 383.03 465.25 C 384.86 463.08, 386.04 461.98, 388.21 460.25 C 390.39 458.52, 391.70 457.83, 393.89 456.59 C 396.08 455.35, 397.23 454.80, 399.16 454.03 C 401.10 453.27, 401.97 453.07, 403.55 452.76 C 405.13 452.45, 405.86 452.61, 407.06 452.48 C 408.27 452.35, 408.69 452.38, 409.57 452.13 C 410.45 451.89, 410.96 451.89, 411.45 451.26 C 411.93 450.63, 412.20 449.79, 411.98 449.00" style="stroke: black; fill: black;"/><path d="M 451.48,450.63 C 450.76 451.10, 450.55 451.66, 450.08 453.01 C 449.61 454.36, 449.47 455.27, 449.14 457.36 C 448.81 459.45, 448.71 460.81, 448.44 463.46 C 448.17 466.10, 448.11 467.75, 447.78 470.58 C 447.45 473.40, 447.04 474.98, 446.80 477.60 C 446.57 480.21, 446.50 481.63, 446.60 483.63 C 446.70 485.64, 446.80 486.76, 447.31 487.61 C 447.82 488.47, 448.42 488.56, 449.17 487.91 C 449.93 487.25, 450.36 486.21, 451.07 484.34 C 451.79 482.46, 452.15 481.10, 452.73 478.53 C 453.31 475.96, 453.47 474.34, 453.97 471.48 C 454.47 468.62, 454.89 466.97, 455.23 464.23 C 455.57 461.50, 455.74 460.02, 455.69 457.79 C 455.65 455.57, 455.43 454.54, 455.02 453.11 C 454.61 451.68, 454.35 451.13, 453.64 450.64 C 452.93 450.14, 452.19 450.15, 451.48 450.63" style="stroke: black; fill: black;"/><path d="M 460.00,416.67 C 460.92 416.65, 461.57 416.42, 461.55 416.44 C 461.53 416.46, 460.44 416.73, 459.88 416.77 C 459.32 416.81, 459.02 416.98, 458.77 416.64 C 458.51 416.31, 458.92 415.44, 458.60 415.11 C 458.28 414.79, 457.80 414.85, 457.16 415.02 C 456.52 415.19, 455.45 415.64, 455.41 415.95 C 455.36 416.25, 456.01 416.41, 456.93 416.56 C 457.85 416.70, 459.07 416.69, 460.00 416.67" style="stroke: black; fill: black;"/><path d="M 482.80,470.76 C 483.28 471.50, 483.92 471.92, 485.30 472.20 C 486.67 472.47, 487.70 472.52, 489.66 472.14 C 491.62 471.76, 492.92 471.35, 495.10 470.28 C 497.27 469.21, 498.44 468.33, 500.51 466.80 C 502.59 465.27, 503.65 464.36, 505.47 462.61 C 507.29 460.86, 508.20 459.91, 509.63 458.05 C 511.07 456.19, 511.75 455.23, 512.64 453.33 C 513.54 451.42, 513.90 450.39, 514.10 448.53 C 514.30 446.67, 514.25 445.66, 513.65 444.01 C 513.04 442.36, 512.48 441.45, 511.06 440.28 C 509.63 439.12, 508.58 438.58, 506.52 438.20 C 504.45 437.82, 503.18 437.88, 500.75 438.38 C 498.32 438.88, 496.91 439.34, 494.37 440.70 C 491.83 442.05, 490.43 443.05, 488.05 445.16 C 485.67 447.27, 484.48 448.63, 482.49 451.26 C 480.50 453.90, 479.52 455.39, 478.11 458.33 C 476.69 461.27, 476.01 462.91, 475.41 465.97 C 474.80 469.03, 474.70 470.70, 475.08 473.63 C 475.46 476.55, 475.94 478.09, 477.33 480.58 C 478.71 483.08, 479.72 484.29, 482.00 486.10 C 484.28 487.91, 485.78 488.71, 488.72 489.61 C 491.67 490.52, 493.42 490.65, 496.71 490.64 C 500.00 490.62, 501.81 490.32, 505.18 489.55 C 508.55 488.77, 510.32 488.13, 513.56 486.76 C 516.80 485.40, 518.43 484.52, 521.38 482.71 C 524.33 480.91, 525.76 479.86, 528.32 477.75 C 530.88 475.63, 532.08 474.43, 534.17 472.15 C 536.26 469.86, 537.21 468.60, 538.77 466.32 C 540.33 464.04, 540.93 462.80, 541.98 460.74 C 543.03 458.68, 543.42 457.63, 544.04 456.01 C 544.65 454.40, 544.92 453.66, 545.05 452.65 C 545.18 451.64, 545.04 451.27, 544.70 450.96 C 544.36 450.66, 543.82 450.71, 543.35 451.14 C 542.89 451.57, 542.57 451.99, 542.39 453.13 C 542.20 454.26, 542.32 455.07, 542.43 456.82 C 542.55 458.57, 542.82 459.74, 542.97 461.87 C 543.12 464.01, 543.16 465.30, 543.19 467.50 C 543.22 469.70, 543.03 470.91, 543.10 472.87 C 543.17 474.83, 543.03 475.89, 543.53 477.29 C 544.03 478.68, 544.54 479.31, 545.60 479.86 C 546.66 480.41, 547.48 480.51, 548.81 480.04 C 550.14 479.56, 550.87 478.98, 552.24 477.46 C 553.61 475.95, 554.26 474.76, 555.65 472.45 C 557.04 470.14, 557.57 468.48, 559.19 465.92 C 560.81 463.36, 561.81 461.89, 563.74 459.63 C 565.67 457.37, 566.89 456.37, 568.85 454.63 C 570.81 452.89, 571.80 452.04, 573.55 450.93 C 575.30 449.81, 576.16 449.45, 577.60 449.05 C 579.05 448.65, 579.69 448.65, 580.77 448.93 C 581.84 449.21, 582.23 449.46, 582.98 450.45 C 583.72 451.43, 583.98 452.16, 584.47 453.86 C 584.96 455.56, 585.17 456.69, 585.42 458.96 C 585.68 461.23, 585.69 462.64, 585.76 465.20 C 585.84 467.76, 585.75 469.37, 585.80 471.76 C 585.85 474.15, 585.79 475.39, 585.99 477.16 C 586.20 478.93, 586.46 479.59, 586.84 480.59 C 587.22 481.60, 587.43 481.88, 587.89 482.18 C 588.35 482.49, 588.71 482.43, 589.13 482.12 C 589.56 481.81, 589.63 481.58, 590.03 480.64 C 590.44 479.69, 590.80 479.13, 591.16 477.39 C 591.53 475.65, 591.67 474.40, 591.85 471.93 C 592.04 469.46, 592.14 467.82, 592.09 465.05 C 592.03 462.28, 592.03 460.73, 591.58 458.08 C 591.13 455.43, 590.86 453.99, 589.84 451.79 C 588.82 449.59, 588.08 448.50, 586.49 447.06 C 584.91 445.63, 583.88 445.14, 581.90 444.62 C 579.93 444.09, 578.81 444.07, 576.63 444.44 C 574.45 444.81, 573.29 445.27, 571.00 446.46 C 568.71 447.65, 567.47 448.48, 565.20 450.39 C 562.92 452.30, 561.80 453.61, 559.63 456.03 C 557.46 458.44, 556.36 459.96, 554.36 462.48 C 552.36 465.00, 551.17 466.34, 549.64 468.62 C 548.10 470.91, 547.43 472.14, 546.69 473.90 C 545.96 475.66, 545.93 476.49, 545.96 477.41 C 546.00 478.34, 546.44 478.59, 546.87 478.54 C 547.30 478.49, 547.68 478.21, 548.11 477.15 C 548.53 476.08, 548.70 475.10, 548.98 473.20 C 549.27 471.31, 549.37 469.99, 549.52 467.68 C 549.68 465.37, 549.75 463.97, 549.75 461.65 C 549.76 459.33, 549.82 458.04, 549.55 456.08 C 549.28 454.11, 549.10 453.15, 548.39 451.84 C 547.68 450.53, 547.04 450.04, 546.00 449.53 C 544.97 449.02, 544.20 449.03, 543.22 449.29 C 542.24 449.55, 541.86 449.91, 541.11 450.85 C 540.35 451.79, 540.20 452.51, 539.45 453.99 C 538.70 455.48, 538.37 456.41, 537.34 458.27 C 536.31 460.13, 535.72 461.19, 534.31 463.28 C 532.89 465.37, 532.12 466.56, 530.29 468.71 C 528.45 470.85, 527.44 472.02, 525.15 474.00 C 522.87 475.99, 521.56 476.97, 518.87 478.63 C 516.18 480.28, 514.65 481.08, 511.70 482.28 C 508.75 483.48, 507.10 484.02, 504.11 484.62 C 501.13 485.22, 499.51 485.35, 496.76 485.28 C 494.00 485.21, 492.64 484.96, 490.33 484.28 C 488.01 483.61, 486.90 483.15, 485.19 481.92 C 483.48 480.68, 482.77 479.89, 481.79 478.11 C 480.81 476.33, 480.48 475.24, 480.27 473.02 C 480.05 470.81, 480.19 469.53, 480.72 467.05 C 481.24 464.57, 481.68 463.13, 482.89 460.64 C 484.09 458.15, 484.97 456.80, 486.76 454.60 C 488.55 452.40, 489.74 451.31, 491.84 449.63 C 493.94 447.94, 495.20 447.26, 497.27 446.18 C 499.34 445.10, 500.44 444.75, 502.17 444.24 C 503.90 443.73, 504.70 443.66, 505.92 443.64 C 507.15 443.61, 507.58 443.76, 508.28 444.13 C 508.97 444.49, 509.19 444.75, 509.40 445.48 C 509.61 446.21, 509.61 446.67, 509.34 447.76 C 509.06 448.85, 508.81 449.57, 508.01 450.92 C 507.22 452.28, 506.65 453.06, 505.35 454.53 C 504.05 455.99, 503.20 456.82, 501.51 458.25 C 499.83 459.68, 498.80 460.47, 496.94 461.68 C 495.08 462.89, 494.02 463.45, 492.22 464.30 C 490.41 465.15, 489.38 465.34, 487.90 465.93 C 486.41 466.52, 485.80 466.73, 484.79 467.25 C 483.79 467.77, 483.29 467.81, 482.89 468.51 C 482.49 469.22, 482.32 470.02, 482.80 470.76" style="stroke: black; fill: black;"/><path d="M 639.41,444.58 C 639.03 443.87, 638.57 443.57, 637.47 443.24 C 636.37 442.91, 635.60 442.74, 633.91 442.93 C 632.21 443.13, 631.07 443.37, 629.00 444.21 C 626.93 445.05, 625.76 445.71, 623.54 447.16 C 621.32 448.61, 620.08 449.48, 617.91 451.46 C 615.73 453.43, 614.54 454.63, 612.66 457.03 C 610.78 459.43, 609.81 460.82, 608.51 463.46 C 607.21 466.10, 606.64 467.56, 606.16 470.22 C 605.67 472.89, 605.61 474.33, 606.08 476.79 C 606.55 479.25, 607.04 480.51, 608.51 482.53 C 609.97 484.55, 611.02 485.51, 613.39 486.90 C 615.76 488.29, 617.31 488.94, 620.34 489.48 C 623.37 490.01, 625.13 489.84, 628.54 489.59 C 631.95 489.35, 633.79 488.99, 637.40 488.24 C 641.01 487.48, 642.93 486.99, 646.59 485.80 C 650.25 484.61, 652.14 483.85, 655.69 482.29 C 659.24 480.72, 661.05 479.81, 664.35 477.96 C 667.64 476.12, 669.25 475.11, 672.16 473.08 C 675.08 471.04, 676.53 469.94, 678.91 467.78 C 681.29 465.62, 682.42 464.48, 684.07 462.27 C 685.73 460.06, 686.36 458.87, 687.20 456.73 C 688.03 454.59, 688.31 453.52, 688.26 451.59 C 688.21 449.66, 687.94 448.62, 686.95 447.10 C 685.97 445.57, 685.13 444.78, 683.35 443.97 C 681.56 443.17, 680.33 442.93, 678.03 443.06 C 675.72 443.19, 674.33 443.55, 671.83 444.64 C 669.32 445.73, 667.88 446.57, 665.50 448.51 C 663.12 450.44, 661.91 451.78, 659.93 454.32 C 657.95 456.87, 656.90 458.35, 655.61 461.24 C 654.32 464.14, 653.78 465.79, 653.49 468.79 C 653.19 471.78, 653.26 473.42, 654.13 476.21 C 655.00 479.01, 655.76 480.52, 657.83 482.75 C 659.90 484.99, 661.39 485.95, 664.48 487.38 C 667.56 488.80, 669.46 489.21, 673.24 489.87 C 677.01 490.53, 679.52 490.61, 683.35 490.69 C 687.17 490.78, 689.33 490.81, 692.35 490.31 C 695.36 489.80, 697.26 489.02, 698.42 488.18 C 699.58 487.34, 699.43 486.63, 698.15 486.11 C 696.86 485.60, 694.93 485.67, 691.99 485.61 C 689.06 485.56, 687.05 485.95, 683.47 485.85 C 679.89 485.76, 677.45 485.75, 674.09 485.13 C 670.73 484.51, 669.14 483.93, 666.65 482.74 C 664.15 481.55, 663.15 480.79, 661.61 479.19 C 660.07 477.59, 659.52 476.70, 658.95 474.75 C 658.37 472.80, 658.40 471.66, 658.75 469.43 C 659.10 467.20, 659.55 465.90, 660.68 463.60 C 661.80 461.30, 662.64 459.98, 664.38 457.94 C 666.12 455.90, 667.37 454.94, 669.38 453.41 C 671.39 451.87, 672.55 451.20, 674.43 450.27 C 676.30 449.35, 677.28 449.10, 678.75 448.76 C 680.22 448.42, 680.82 448.42, 681.76 448.56 C 682.71 448.69, 683.04 448.85, 683.47 449.43 C 683.90 450.01, 684.04 450.39, 683.91 451.46 C 683.77 452.53, 683.57 453.23, 682.78 454.77 C 681.98 456.30, 681.39 457.25, 679.94 459.13 C 678.49 461.02, 677.61 462.14, 675.53 464.20 C 673.44 466.26, 672.18 467.43, 669.52 469.43 C 666.86 471.44, 665.34 472.44, 662.23 474.23 C 659.12 476.02, 657.37 476.91, 653.98 478.38 C 650.59 479.86, 648.77 480.56, 645.28 481.61 C 641.79 482.66, 639.93 483.06, 636.54 483.61 C 633.15 484.17, 631.36 484.36, 628.33 484.38 C 625.29 484.40, 623.86 484.16, 621.38 483.70 C 618.91 483.25, 617.74 482.93, 615.95 482.11 C 614.15 481.28, 613.41 480.79, 612.40 479.57 C 611.39 478.34, 611.12 477.63, 610.90 475.98 C 610.69 474.34, 610.79 473.33, 611.32 471.35 C 611.85 469.38, 612.36 468.22, 613.55 466.10 C 614.74 463.98, 615.58 462.77, 617.27 460.76 C 618.96 458.76, 620.07 457.74, 622.00 456.08 C 623.93 454.42, 625.04 453.64, 626.93 452.47 C 628.82 451.29, 629.79 450.90, 631.45 450.23 C 633.10 449.55, 633.92 449.53, 635.20 449.11 C 636.47 448.68, 636.96 448.56, 637.80 448.10 C 638.64 447.64, 639.07 447.51, 639.39 446.80 C 639.71 446.10, 639.80 445.29, 639.41 444.58" style="stroke: black; fill: black;"/><path d="M 798.65,406.13 C 798.01 406.60, 797.89 407.02, 797.50 408.32 C 797.11 409.62, 796.85 410.42, 796.69 412.64 C 796.53 414.86, 796.74 416.31, 796.70 419.43 C 796.67 422.54, 796.77 424.44, 796.50 428.21 C 796.24 431.98, 795.95 434.18, 795.37 438.27 C 794.79 442.36, 794.38 444.60, 793.62 448.65 C 792.85 452.69, 792.38 454.82, 791.53 458.50 C 790.69 462.18, 790.08 464.01, 789.39 467.05 C 788.70 470.08, 788.28 471.49, 788.06 473.67 C 787.85 475.85, 787.85 476.74, 788.30 477.95 C 788.75 479.16, 789.27 479.54, 790.31 479.71 C 791.34 479.89, 792.18 479.73, 793.46 478.83 C 794.73 477.94, 795.37 477.08, 796.67 475.23 C 797.98 473.38, 798.43 471.98, 799.99 469.57 C 801.55 467.15, 802.38 465.60, 804.48 463.15 C 806.58 460.70, 807.92 459.37, 810.47 457.32 C 813.02 455.26, 814.54 454.29, 817.25 452.87 C 819.96 451.45, 821.44 450.93, 824.02 450.21 C 826.59 449.49, 827.90 449.29, 830.12 449.25 C 832.34 449.21, 833.40 449.38, 835.12 450.01 C 836.84 450.64, 837.58 451.17, 838.74 452.40 C 839.89 453.63, 840.35 454.45, 840.90 456.15 C 841.45 457.86, 841.62 458.89, 841.49 460.93 C 841.36 462.98, 841.09 464.14, 840.24 466.38 C 839.40 468.61, 838.80 469.90, 837.26 472.10 C 835.71 474.29, 834.71 475.47, 832.49 477.37 C 830.28 479.26, 828.86 480.19, 826.20 481.58 C 823.53 482.97, 821.93 483.56, 819.18 484.30 C 816.43 485.05, 814.95 485.15, 812.45 485.29 C 809.95 485.42, 808.74 485.34, 806.69 484.99 C 804.64 484.65, 803.84 484.14, 802.21 483.58 C 800.57 483.01, 799.51 482.09, 798.50 482.15 C 797.50 482.21, 796.87 482.79, 797.18 483.87 C 797.48 484.95, 798.36 486.30, 800.05 487.54 C 801.74 488.78, 803.08 489.44, 805.61 490.07 C 808.15 490.70, 809.75 490.85, 812.74 490.69 C 815.74 490.53, 817.42 490.20, 820.58 489.28 C 823.74 488.35, 825.49 487.66, 828.54 486.07 C 831.58 484.49, 833.18 483.49, 835.81 481.34 C 838.45 479.20, 839.72 477.94, 841.69 475.36 C 843.66 472.77, 844.58 471.26, 845.65 468.42 C 846.72 465.57, 847.01 463.94, 847.06 461.13 C 847.10 458.32, 846.81 456.80, 845.86 454.36 C 844.91 451.92, 844.10 450.71, 842.30 448.91 C 840.51 447.12, 839.31 446.36, 836.87 445.40 C 834.43 444.45, 832.97 444.17, 830.11 444.14 C 827.25 444.11, 825.63 444.38, 822.59 445.26 C 819.56 446.15, 817.98 446.94, 814.95 448.58 C 811.93 450.22, 810.33 451.29, 807.46 453.48 C 804.60 455.67, 803.16 457.08, 800.64 459.54 C 798.12 462.00, 796.84 463.38, 794.85 465.77 C 792.86 468.17, 791.84 469.44, 790.70 471.52 C 789.56 473.60, 789.32 474.75, 789.16 476.17 C 789.00 477.59, 789.44 478.23, 789.89 478.63 C 790.34 479.03, 790.82 478.98, 791.41 478.17 C 792.00 477.35, 792.29 476.56, 792.83 474.54 C 793.38 472.51, 793.58 471.07, 794.14 468.03 C 794.71 465.00, 794.97 463.08, 795.65 459.35 C 796.33 455.62, 796.79 453.48, 797.56 449.39 C 798.33 445.31, 798.76 443.05, 799.49 438.93 C 800.22 434.80, 800.58 432.59, 801.22 428.77 C 801.85 424.95, 802.28 423.03, 802.66 419.82 C 803.04 416.62, 803.22 415.07, 803.12 412.74 C 803.03 410.40, 802.67 409.51, 802.19 408.16 C 801.71 406.81, 801.43 406.39, 800.72 405.98 C 800.01 405.57, 799.29 405.67, 798.65 406.13" style="stroke: black; fill: black;"/><path d="M 863.08,450.25 C 862.33 450.70, 861.99 451.28, 861.53 452.62 C 861.08 453.97, 860.86 454.95, 860.78 456.97 C 860.71 458.99, 860.80 460.36, 861.15 462.71 C 861.50 465.06, 861.82 466.41, 862.53 468.73 C 863.25 471.04, 863.63 472.29, 864.71 474.28 C 865.80 476.26, 866.43 477.25, 867.95 478.66 C 869.47 480.07, 870.39 480.67, 872.31 481.32 C 874.24 481.97, 875.38 482.11, 877.58 481.90 C 879.78 481.69, 880.99 481.31, 883.31 480.25 C 885.63 479.19, 886.86 478.39, 889.17 476.60 C 891.47 474.81, 892.62 473.53, 894.82 471.30 C 897.02 469.06, 898.15 467.73, 900.16 465.44 C 902.17 463.16, 903.18 461.92, 904.87 459.86 C 906.55 457.80, 907.35 456.76, 908.58 455.15 C 909.81 453.54, 910.38 452.83, 911.03 451.82 C 911.68 450.80, 911.80 450.44, 911.83 450.10 C 911.86 449.76, 911.51 449.64, 911.18 450.11 C 910.84 450.58, 910.51 450.96, 910.14 452.45 C 909.77 453.94, 909.57 454.96, 909.32 457.56 C 909.07 460.16, 909.32 461.85, 908.90 465.44 C 908.47 469.02, 908.13 471.16, 907.19 475.49 C 906.25 479.82, 905.62 482.31, 904.20 487.08 C 902.78 491.85, 901.89 494.49, 900.08 499.35 C 898.27 504.21, 897.22 506.81, 895.13 511.38 C 893.05 515.94, 891.87 518.28, 889.65 522.17 C 887.43 526.06, 886.22 527.93, 884.04 530.80 C 881.85 533.68, 880.62 534.75, 878.75 536.56 C 876.87 538.37, 876.10 538.95, 874.66 539.86 C 873.21 540.78, 872.50 540.80, 871.51 541.15 C 870.51 541.49, 870.31 541.47, 869.67 541.60 C 869.02 541.73, 868.68 541.46, 868.27 541.81 C 867.87 542.15, 867.45 542.74, 867.64 543.33 C 867.83 543.93, 868.27 544.43, 869.22 544.78 C 870.18 545.14, 870.88 545.33, 872.40 545.10 C 873.93 544.88, 874.90 544.70, 876.84 543.66 C 878.78 542.63, 880.03 542.06, 882.10 539.93 C 884.18 537.81, 885.13 536.28, 887.24 533.05 C 889.34 529.83, 890.49 527.89, 892.65 523.82 C 894.81 519.75, 895.96 517.36, 898.05 512.69 C 900.14 508.03, 901.20 505.40, 903.08 500.49 C 904.97 495.57, 905.89 492.92, 907.49 488.11 C 909.08 483.31, 909.78 480.82, 911.05 476.47 C 912.31 472.13, 912.83 470.01, 913.81 466.40 C 914.79 462.78, 915.52 461.18, 915.95 458.40 C 916.38 455.62, 916.30 454.41, 915.95 452.50 C 915.61 450.59, 915.18 449.84, 914.24 448.85 C 913.29 447.85, 912.48 447.57, 911.23 447.52 C 909.99 447.47, 909.34 447.78, 908.02 448.62 C 906.71 449.46, 906.15 450.21, 904.66 451.73 C 903.17 453.25, 902.29 454.21, 900.55 456.21 C 898.81 458.21, 897.91 459.53, 895.95 461.72 C 894.00 463.91, 892.90 465.18, 890.78 467.17 C 888.66 469.16, 887.38 470.11, 885.35 471.68 C 883.32 473.25, 882.35 474.01, 880.63 475.02 C 878.91 476.03, 878.13 476.37, 876.75 476.73 C 875.37 477.09, 874.80 477.12, 873.73 476.82 C 872.67 476.53, 872.24 476.22, 871.43 475.25 C 870.62 474.28, 870.26 473.56, 869.67 471.96 C 869.08 470.36, 868.83 469.27, 868.47 467.25 C 868.11 465.24, 868.06 464.00, 867.86 461.88 C 867.66 459.76, 867.71 458.51, 867.46 456.67 C 867.21 454.83, 867.03 453.93, 866.60 452.67 C 866.16 451.41, 865.99 450.84, 865.29 450.36 C 864.58 449.87, 863.83 449.79, 863.08 450.25" style="stroke: black; fill: black;"/><path d="M 1035.50,445.40 C 1035.51 444.55, 1035.17 444.00, 1034.36 443.21 C 1033.56 442.42, 1032.96 441.97, 1031.47 441.44 C 1029.98 440.91, 1028.93 440.63, 1026.93 440.58 C 1024.93 440.52, 1023.81 440.65, 1021.46 441.18 C 1019.11 441.70, 1017.80 441.98, 1015.18 443.19 C 1012.55 444.41, 1011.09 445.28, 1008.35 447.24 C 1005.61 449.21, 1004.09 450.45, 1001.47 453.00 C 998.85 455.55, 997.48 457.08, 995.24 459.98 C 993.00 462.88, 991.89 464.51, 990.29 467.49 C 988.68 470.47, 987.92 472.08, 987.23 474.88 C 986.54 477.69, 986.51 479.16, 986.85 481.52 C 987.18 483.88, 987.63 485.03, 988.91 486.68 C 990.18 488.33, 991.18 489.04, 993.22 489.76 C 995.26 490.47, 996.59 490.60, 999.12 490.27 C 1001.65 489.94, 1003.15 489.49, 1005.89 488.09 C 1008.62 486.68, 1009.99 485.44, 1012.79 483.23 C 1015.58 481.03, 1017.05 479.70, 1019.86 477.07 C 1022.66 474.45, 1024.14 472.92, 1026.80 470.10 C 1029.45 467.29, 1030.81 465.67, 1033.13 463.00 C 1035.46 460.32, 1036.69 459.02, 1038.43 456.73 C 1040.18 454.45, 1040.96 453.30, 1041.88 451.56 C 1042.79 449.83, 1043.04 448.91, 1043.01 448.05 C 1042.98 447.19, 1042.41 446.88, 1041.74 447.27 C 1041.07 447.66, 1040.41 448.27, 1039.66 449.99 C 1038.91 451.71, 1038.47 453.08, 1038.00 455.87 C 1037.53 458.66, 1037.67 460.67, 1037.30 463.94 C 1036.92 467.22, 1036.44 469.17, 1036.13 472.26 C 1035.82 475.34, 1035.64 477.06, 1035.72 479.38 C 1035.80 481.71, 1036.15 482.57, 1036.53 483.89 C 1036.91 485.22, 1037.15 485.59, 1037.63 486.01 C 1038.10 486.42, 1038.47 486.36, 1038.91 485.95 C 1039.35 485.54, 1039.40 485.19, 1039.82 483.95 C 1040.25 482.71, 1040.62 481.96, 1041.02 479.76 C 1041.43 477.57, 1041.42 475.93, 1041.85 472.96 C 1042.28 469.98, 1042.49 468.07, 1043.16 464.89 C 1043.83 461.72, 1044.72 459.92, 1045.21 457.10 C 1045.69 454.28, 1045.83 452.84, 1045.59 450.79 C 1045.35 448.75, 1044.91 447.79, 1044.01 446.87 C 1043.10 445.94, 1042.29 445.79, 1041.07 446.17 C 1039.85 446.54, 1039.27 447.26, 1037.90 448.74 C 1036.53 450.22, 1035.87 451.30, 1034.21 453.57 C 1032.55 455.83, 1031.71 457.36, 1029.59 460.06 C 1027.46 462.76, 1026.15 464.35, 1023.59 467.07 C 1021.02 469.79, 1019.54 471.26, 1016.78 473.66 C 1014.01 476.06, 1012.49 477.26, 1009.76 479.06 C 1007.04 480.86, 1005.50 481.50, 1003.15 482.65 C 1000.80 483.79, 999.77 484.26, 998.01 484.79 C 996.26 485.32, 995.54 485.43, 994.38 485.31 C 993.21 485.19, 992.79 485.04, 992.20 484.21 C 991.61 483.38, 991.43 482.75, 991.44 481.15 C 991.46 479.55, 991.62 478.48, 992.27 476.21 C 992.92 473.94, 993.33 472.45, 994.68 469.79 C 996.03 467.13, 996.98 465.53, 999.01 462.89 C 1001.05 460.25, 1002.37 458.83, 1004.84 456.61 C 1007.31 454.39, 1008.82 453.36, 1011.38 451.80 C 1013.94 450.23, 1015.37 449.73, 1017.65 448.77 C 1019.93 447.81, 1020.96 447.40, 1022.77 446.99 C 1024.58 446.58, 1025.30 446.63, 1026.70 446.70 C 1028.10 446.78, 1028.67 447.16, 1029.78 447.37 C 1030.88 447.58, 1031.31 447.75, 1032.22 447.76 C 1033.13 447.78, 1033.66 447.92, 1034.32 447.44 C 1034.97 446.97, 1035.49 446.24, 1035.50 445.40" style="stroke: black; fill: black;"/><path d="M 1066.28,447.42 C 1065.59 447.94, 1065.50 448.56, 1065.05 449.92 C 1064.61 451.27, 1064.39 452.13, 1064.05 454.20 C 1063.72 456.26, 1063.66 457.70, 1063.37 460.24 C 1063.09 462.78, 1062.94 464.30, 1062.64 466.90 C 1062.33 469.49, 1062.02 470.94, 1061.85 473.21 C 1061.67 475.48, 1061.43 476.67, 1061.75 478.25 C 1062.07 479.83, 1062.50 480.51, 1063.45 481.11 C 1064.40 481.70, 1065.20 481.77, 1066.49 481.22 C 1067.77 480.67, 1068.54 480.08, 1069.88 478.36 C 1071.22 476.63, 1071.74 475.20, 1073.17 472.57 C 1074.59 469.95, 1075.20 468.12, 1077.00 465.23 C 1078.81 462.34, 1080.01 460.75, 1082.21 458.12 C 1084.40 455.50, 1085.73 454.12, 1087.99 452.10 C 1090.25 450.07, 1091.50 449.30, 1093.51 448.00 C 1095.52 446.71, 1096.46 446.17, 1098.05 445.62 C 1099.65 445.07, 1100.31 445.01, 1101.48 445.25 C 1102.65 445.49, 1103.11 445.78, 1103.90 446.81 C 1104.68 447.83, 1104.93 448.53, 1105.38 450.37 C 1105.84 452.21, 1105.95 453.45, 1106.18 456.01 C 1106.40 458.56, 1106.56 460.21, 1106.50 463.16 C 1106.45 466.10, 1106.08 467.85, 1105.90 470.72 C 1105.71 473.58, 1105.50 475.18, 1105.58 477.49 C 1105.66 479.80, 1105.91 480.83, 1106.30 482.28 C 1106.68 483.74, 1106.97 484.28, 1107.51 484.77 C 1108.05 485.25, 1108.49 485.19, 1108.98 484.69 C 1109.47 484.20, 1109.55 483.68, 1109.96 482.31 C 1110.36 480.94, 1110.65 480.06, 1111.02 477.83 C 1111.38 475.60, 1111.52 474.08, 1111.78 471.18 C 1112.05 468.28, 1112.23 466.49, 1112.36 463.33 C 1112.49 460.17, 1112.76 458.35, 1112.43 455.38 C 1112.10 452.41, 1111.74 450.87, 1110.71 448.49 C 1109.69 446.12, 1108.96 445.01, 1107.30 443.51 C 1105.64 442.01, 1104.49 441.48, 1102.40 441.00 C 1100.30 440.53, 1099.15 440.63, 1096.83 441.15 C 1094.51 441.68, 1093.23 442.17, 1090.80 443.62 C 1088.36 445.08, 1087.11 446.16, 1084.65 448.43 C 1082.19 450.70, 1080.91 452.22, 1078.52 454.97 C 1076.12 457.73, 1074.88 459.36, 1072.67 462.19 C 1070.46 465.02, 1069.17 466.56, 1067.46 469.14 C 1065.76 471.72, 1064.93 473.09, 1064.14 475.07 C 1063.35 477.05, 1063.40 478.00, 1063.51 479.06 C 1063.63 480.13, 1064.14 480.47, 1064.70 480.40 C 1065.27 480.32, 1065.77 479.94, 1066.36 478.69 C 1066.95 477.43, 1067.14 476.28, 1067.66 474.12 C 1068.18 471.96, 1068.43 470.49, 1068.94 467.88 C 1069.45 465.27, 1069.85 463.71, 1070.19 461.06 C 1070.53 458.41, 1070.67 456.87, 1070.63 454.65 C 1070.59 452.43, 1070.43 451.43, 1070.00 449.96 C 1069.58 448.49, 1069.26 447.81, 1068.51 447.31 C 1067.77 446.80, 1066.98 446.90, 1066.28 447.42" style="stroke: black; fill: black;"/><path d="M 1163.56,453.60 C 1163.75 452.78, 1163.57 452.14, 1162.92 451.23 C 1162.27 450.32, 1161.70 449.73, 1160.31 449.04 C 1158.92 448.36, 1157.88 447.98, 1155.96 447.80 C 1154.04 447.63, 1152.91 447.71, 1150.71 448.16 C 1148.50 448.61, 1147.29 448.95, 1144.95 450.07 C 1142.61 451.20, 1141.27 451.94, 1139.00 453.79 C 1136.73 455.64, 1135.56 456.88, 1133.61 459.30 C 1131.65 461.72, 1130.64 463.16, 1129.21 465.89 C 1127.79 468.61, 1127.15 470.19, 1126.49 472.94 C 1125.82 475.68, 1125.68 477.18, 1125.90 479.61 C 1126.12 482.04, 1126.48 483.27, 1127.58 485.08 C 1128.69 486.89, 1129.57 487.73, 1131.43 488.65 C 1133.29 489.57, 1134.53 489.82, 1136.88 489.69 C 1139.23 489.56, 1140.63 489.28, 1143.17 488.00 C 1145.71 486.72, 1147.01 485.63, 1149.58 483.28 C 1152.15 480.93, 1153.45 479.43, 1156.04 476.25 C 1158.63 473.08, 1159.99 471.24, 1162.53 467.42 C 1165.07 463.60, 1166.36 461.42, 1168.73 457.16 C 1171.11 452.91, 1172.29 450.54, 1174.41 446.14 C 1176.53 441.75, 1177.53 439.42, 1179.33 435.18 C 1181.13 430.95, 1181.94 428.77, 1183.41 424.98 C 1184.88 421.19, 1185.62 419.35, 1186.70 416.24 C 1187.78 413.13, 1188.35 411.70, 1188.82 409.44 C 1189.29 407.18, 1189.35 406.18, 1189.05 404.94 C 1188.75 403.70, 1188.21 403.22, 1187.31 403.24 C 1186.42 403.26, 1185.52 403.50, 1184.58 405.04 C 1183.64 406.58, 1183.20 407.85, 1182.62 410.92 C 1182.05 414.00, 1182.21 416.16, 1181.71 420.42 C 1181.21 424.68, 1180.77 427.28, 1180.12 432.21 C 1179.48 437.14, 1179.07 440.01, 1178.48 445.08 C 1177.90 450.15, 1177.58 452.83, 1177.19 457.55 C 1176.80 462.26, 1176.64 464.59, 1176.54 468.67 C 1176.44 472.74, 1176.36 474.79, 1176.68 477.92 C 1177.00 481.05, 1177.44 482.38, 1178.14 484.32 C 1178.84 486.25, 1179.46 487.03, 1180.17 487.60 C 1180.88 488.17, 1181.37 487.97, 1181.69 487.17 C 1182.00 486.37, 1181.83 485.53, 1181.75 483.59 C 1181.66 481.65, 1181.55 480.46, 1181.26 477.47 C 1180.97 474.48, 1180.45 472.59, 1180.31 468.65 C 1180.18 464.72, 1180.28 462.43, 1180.59 457.80 C 1180.89 453.16, 1181.20 450.49, 1181.84 445.49 C 1182.48 440.49, 1182.90 437.63, 1183.78 432.78 C 1184.65 427.93, 1185.22 425.36, 1186.22 421.23 C 1187.23 417.11, 1188.18 415.17, 1188.82 412.16 C 1189.46 409.15, 1189.60 407.91, 1189.44 406.19 C 1189.27 404.47, 1188.69 403.94, 1187.99 403.56 C 1187.28 403.17, 1186.69 403.34, 1185.92 404.27 C 1185.15 405.19, 1184.85 406.07, 1184.15 408.19 C 1183.45 410.32, 1183.27 411.80, 1182.41 414.90 C 1181.55 418.00, 1181.10 419.90, 1179.84 423.69 C 1178.58 427.48, 1177.82 429.66, 1176.12 433.85 C 1174.42 438.05, 1173.44 440.36, 1171.36 444.67 C 1169.28 448.99, 1168.09 451.32, 1165.70 455.44 C 1163.31 459.55, 1161.99 461.67, 1159.41 465.26 C 1156.82 468.84, 1155.40 470.57, 1152.75 473.37 C 1150.11 476.17, 1148.65 477.37, 1146.19 479.25 C 1143.73 481.12, 1142.47 481.70, 1140.47 482.75 C 1138.47 483.81, 1137.65 484.15, 1136.20 484.52 C 1134.75 484.89, 1134.16 484.92, 1133.21 484.60 C 1132.27 484.29, 1131.92 483.98, 1131.46 482.95 C 1131.01 481.91, 1130.87 481.15, 1130.94 479.44 C 1131.02 477.73, 1131.17 476.56, 1131.84 474.40 C 1132.52 472.24, 1133.06 470.90, 1134.33 468.64 C 1135.59 466.37, 1136.46 465.08, 1138.17 463.07 C 1139.87 461.05, 1140.96 460.06, 1142.85 458.55 C 1144.74 457.03, 1145.79 456.39, 1147.60 455.48 C 1149.41 454.57, 1150.35 454.31, 1151.89 454.00 C 1153.43 453.70, 1154.10 453.80, 1155.32 453.95 C 1156.53 454.10, 1157.02 454.48, 1157.96 454.75 C 1158.90 455.03, 1159.21 455.21, 1160.01 455.32 C 1160.81 455.44, 1161.25 455.68, 1161.96 455.34 C 1162.67 454.99, 1163.37 454.42, 1163.56 453.60" style="stroke: black; fill: black;"/><path d="M 1320.52,425.62 C 1320.96 424.77, 1320.79 423.90, 1320.52 422.50 C 1320.25 421.10, 1320.25 419.97, 1319.17 418.61 C 1318.10 417.24, 1316.51 415.87, 1315.14 415.68 C 1313.77 415.48, 1312.65 416.31, 1312.31 417.62 C 1311.97 418.93, 1312.73 420.74, 1313.44 422.22 C 1314.15 423.70, 1314.90 424.12, 1315.88 425.02 C 1316.86 425.92, 1317.41 426.61, 1318.34 426.73 C 1319.27 426.85, 1320.08 426.46, 1320.52 425.62" style="stroke: black; fill: black;"/><path d="M 1302.82,410.70 C 1301.80 410.31, 1300.59 410.29, 1298.56 410.91 C 1296.54 411.53, 1295.06 412.00, 1292.69 413.78 C 1290.33 415.56, 1288.90 416.95, 1286.74 419.79 C 1284.58 422.63, 1283.62 424.39, 1281.87 427.99 C 1280.13 431.58, 1279.39 433.59, 1278.02 437.77 C 1276.65 441.95, 1276.05 444.26, 1275.03 448.89 C 1274.01 453.52, 1273.61 456.04, 1272.93 460.92 C 1272.25 465.80, 1272.06 468.41, 1271.61 473.29 C 1271.17 478.16, 1271.05 480.70, 1270.71 485.29 C 1270.38 489.87, 1270.25 492.17, 1269.94 496.20 C 1269.63 500.23, 1269.41 502.19, 1269.17 505.43 C 1268.93 508.66, 1268.69 510.17, 1268.74 512.38 C 1268.79 514.58, 1269.14 515.29, 1269.44 516.47 C 1269.74 517.64, 1269.85 517.87, 1270.24 518.23 C 1270.62 518.60, 1270.95 518.63, 1271.38 518.30 C 1271.80 517.97, 1271.96 517.74, 1272.37 516.60 C 1272.77 515.46, 1273.13 514.79, 1273.40 512.60 C 1273.66 510.41, 1273.62 508.88, 1273.69 505.64 C 1273.75 502.40, 1273.63 500.42, 1273.73 496.39 C 1273.82 492.36, 1273.92 490.06, 1274.16 485.50 C 1274.40 480.94, 1274.51 478.40, 1274.93 473.58 C 1275.35 468.76, 1275.55 466.18, 1276.26 461.40 C 1276.98 456.63, 1277.41 454.17, 1278.49 449.69 C 1279.58 445.22, 1280.22 442.97, 1281.68 439.04 C 1283.13 435.11, 1283.94 433.20, 1285.77 430.04 C 1287.59 426.87, 1288.63 425.47, 1290.78 423.22 C 1292.93 420.98, 1294.50 420.38, 1296.52 418.82 C 1298.55 417.26, 1299.49 416.61, 1300.92 415.42 C 1302.35 414.22, 1303.29 413.81, 1303.67 412.86 C 1304.06 411.92, 1303.85 411.09, 1302.82 410.70" style="stroke: black; fill: black;"/><path d="M 1262.04,464.59 C 1262.49 465.41, 1262.93 466.45, 1264.21 466.63 C 1265.48 466.81, 1267.61 466.55, 1268.43 465.48 C 1269.25 464.41, 1269.20 462.31, 1268.32 461.28 C 1267.44 460.26, 1265.31 460.11, 1264.04 460.35 C 1262.78 460.60, 1262.39 461.66, 1261.99 462.51 C 1261.59 463.35, 1261.60 463.76, 1262.04 464.59" style="stroke: black; fill: black;"/><path d="M 1340.28,456.25 C 1340.13 455.41, 1339.73 454.89, 1338.65 454.14 C 1337.57 453.40, 1336.76 452.89, 1334.90 452.53 C 1333.03 452.17, 1331.69 452.06, 1329.31 452.34 C 1326.94 452.63, 1325.58 453.00, 1323.02 453.97 C 1320.46 454.93, 1318.99 455.58, 1316.50 457.18 C 1314.01 458.79, 1312.65 459.81, 1310.56 461.99 C 1308.46 464.16, 1307.42 465.51, 1306.03 468.07 C 1304.64 470.62, 1304.04 472.12, 1303.61 474.79 C 1303.17 477.46, 1303.16 478.95, 1303.85 481.41 C 1304.53 483.88, 1305.24 485.22, 1307.04 487.10 C 1308.85 488.97, 1310.23 489.84, 1312.89 490.78 C 1315.55 491.72, 1317.23 491.96, 1320.37 491.82 C 1323.50 491.67, 1325.29 491.14, 1328.55 490.05 C 1331.82 488.97, 1333.62 488.13, 1336.68 486.38 C 1339.75 484.62, 1341.28 483.47, 1343.87 481.28 C 1346.47 479.08, 1347.79 477.84, 1349.68 475.38 C 1351.57 472.93, 1352.35 471.51, 1353.33 469.01 C 1354.30 466.51, 1354.54 465.17, 1354.54 462.90 C 1354.55 460.62, 1354.24 459.46, 1353.35 457.64 C 1352.46 455.82, 1351.68 454.97, 1350.08 453.79 C 1348.48 452.62, 1347.36 452.18, 1345.35 451.77 C 1343.35 451.36, 1342.11 451.40, 1340.06 451.75 C 1338.01 452.10, 1336.70 452.43, 1335.12 453.52 C 1333.54 454.61, 1332.44 456.02, 1332.14 457.20 C 1331.84 458.39, 1332.53 459.15, 1333.60 459.42 C 1334.68 459.70, 1336.03 458.94, 1337.53 458.56 C 1339.03 458.18, 1339.69 457.79, 1341.10 457.52 C 1342.50 457.25, 1343.29 457.14, 1344.56 457.21 C 1345.83 457.28, 1346.49 457.38, 1347.44 457.87 C 1348.39 458.35, 1348.84 458.65, 1349.32 459.62 C 1349.80 460.59, 1349.99 461.24, 1349.85 462.71 C 1349.71 464.19, 1349.49 465.13, 1348.61 467.01 C 1347.73 468.89, 1347.04 470.03, 1345.44 472.12 C 1343.83 474.21, 1342.84 475.49, 1340.59 477.46 C 1338.35 479.43, 1336.93 480.48, 1334.21 481.98 C 1331.48 483.48, 1329.80 484.16, 1326.97 484.96 C 1324.15 485.77, 1322.58 485.88, 1320.09 486.00 C 1317.60 486.12, 1316.43 486.08, 1314.53 485.58 C 1312.62 485.08, 1311.76 484.60, 1310.57 483.52 C 1309.38 482.44, 1308.95 481.71, 1308.58 480.17 C 1308.21 478.63, 1308.27 477.67, 1308.74 475.81 C 1309.20 473.95, 1309.70 472.80, 1310.90 470.87 C 1312.10 468.93, 1312.97 467.84, 1314.73 466.13 C 1316.50 464.42, 1317.65 463.59, 1319.73 462.32 C 1321.81 461.05, 1323.08 460.50, 1325.14 459.78 C 1327.20 459.06, 1328.24 458.91, 1330.04 458.72 C 1331.84 458.53, 1332.71 458.79, 1334.15 458.82 C 1335.58 458.86, 1336.15 458.99, 1337.20 458.89 C 1338.26 458.80, 1338.81 458.88, 1339.43 458.35 C 1340.04 457.83, 1340.44 457.10, 1340.28 456.25" style="stroke: black; fill: black;"/><path d="M 1374.45,465.54 C 1373.75 466.11, 1373.69 466.87, 1373.33 468.13 C 1372.96 469.40, 1372.84 470.19, 1372.63 471.85 C 1372.42 473.52, 1372.38 474.68, 1372.26 476.48 C 1372.14 478.28, 1372.11 479.31, 1372.02 480.86 C 1371.92 482.40, 1371.67 483.15, 1371.80 484.21 C 1371.92 485.27, 1372.09 485.72, 1372.65 486.15 C 1373.21 486.58, 1373.86 486.66, 1374.60 486.35 C 1375.34 486.03, 1375.80 485.65, 1376.35 484.56 C 1376.89 483.47, 1376.93 482.65, 1377.32 480.90 C 1377.72 479.15, 1377.73 477.99, 1378.33 475.83 C 1378.94 473.67, 1379.34 472.40, 1380.35 470.10 C 1381.37 467.80, 1381.98 466.53, 1383.40 464.31 C 1384.82 462.10, 1385.67 460.95, 1387.47 459.02 C 1389.26 457.10, 1390.31 456.17, 1392.40 454.68 C 1394.48 453.19, 1395.61 452.52, 1397.89 451.56 C 1400.17 450.60, 1401.41 450.32, 1403.80 449.88 C 1406.20 449.45, 1407.62 449.57, 1409.87 449.40 C 1412.12 449.23, 1413.27 449.28, 1415.03 449.03 C 1416.79 448.78, 1417.88 448.72, 1418.65 448.16 C 1419.41 447.60, 1419.53 446.96, 1418.87 446.24 C 1418.21 445.52, 1417.18 445.05, 1415.35 444.54 C 1413.52 444.04, 1412.23 443.74, 1409.71 443.71 C 1407.19 443.67, 1405.53 443.80, 1402.74 444.36 C 1399.95 444.92, 1398.46 445.36, 1395.75 446.52 C 1393.04 447.67, 1391.66 448.41, 1389.19 450.13 C 1386.71 451.85, 1385.52 452.95, 1383.39 455.13 C 1381.26 457.31, 1380.26 458.58, 1378.54 461.04 C 1376.81 463.51, 1376.07 464.90, 1374.78 467.45 C 1373.49 470.00, 1372.98 471.37, 1372.08 473.77 C 1371.19 476.17, 1370.69 477.40, 1370.30 479.44 C 1369.91 481.49, 1369.82 482.54, 1370.14 484.00 C 1370.45 485.45, 1370.99 486.08, 1371.87 486.73 C 1372.74 487.37, 1373.55 487.48, 1374.50 487.23 C 1375.46 486.98, 1375.95 486.55, 1376.64 485.48 C 1377.32 484.41, 1377.48 483.54, 1377.94 481.87 C 1378.40 480.20, 1378.68 479.09, 1378.93 477.14 C 1379.18 475.18, 1379.26 473.95, 1379.18 472.11 C 1379.10 470.26, 1379.01 469.29, 1378.54 467.92 C 1378.07 466.55, 1377.64 465.74, 1376.82 465.27 C 1376.00 464.79, 1375.15 464.96, 1374.45 465.54" style="stroke: black; fill: black;"/><path d="M 1518.55,419.37 C 1517.90 419.99, 1517.76 420.61, 1517.41 422.30 C 1517.05 424.00, 1516.78 425.12, 1516.78 427.85 C 1516.78 430.58, 1517.33 432.39, 1517.41 435.94 C 1517.48 439.49, 1517.43 441.59, 1517.15 445.62 C 1516.88 449.64, 1516.58 451.93, 1516.03 456.08 C 1515.48 460.23, 1515.09 462.47, 1514.40 466.37 C 1513.72 470.26, 1513.28 472.23, 1512.60 475.55 C 1511.93 478.86, 1511.47 480.45, 1511.04 482.94 C 1510.60 485.43, 1510.55 486.45, 1510.43 488.01 C 1510.32 489.57, 1510.31 489.98, 1510.47 490.73 C 1510.63 491.48, 1510.99 491.55, 1511.24 491.74 C 1511.50 491.93, 1511.71 491.64, 1511.74 491.68 C 1511.78 491.73, 1511.33 491.87, 1511.42 491.97 C 1511.51 492.08, 1511.78 492.33, 1512.19 492.21 C 1512.59 492.10, 1512.97 492.07, 1513.45 491.40 C 1513.93 490.73, 1514.08 490.36, 1514.59 488.85 C 1515.09 487.34, 1515.49 486.36, 1515.98 483.86 C 1516.47 481.35, 1516.57 479.69, 1517.06 476.32 C 1517.55 472.96, 1517.84 470.96, 1518.43 467.02 C 1519.02 463.09, 1519.40 460.83, 1520.01 456.64 C 1520.63 452.44, 1520.96 450.14, 1521.49 446.04 C 1522.02 441.95, 1522.28 439.81, 1522.65 436.15 C 1523.02 432.50, 1523.43 430.57, 1523.34 427.75 C 1523.26 424.93, 1522.77 423.75, 1522.23 422.05 C 1521.70 420.34, 1521.40 419.76, 1520.66 419.22 C 1519.93 418.69, 1519.21 418.76, 1518.55 419.37" style="stroke: black; fill: black;"/><path d="M 1500.82,424.54 C 1501.65 424.29, 1501.90 423.60, 1502.79 422.60 C 1503.68 421.60, 1503.99 420.91, 1505.27 419.55 C 1506.55 418.19, 1507.21 417.30, 1509.19 415.80 C 1511.16 414.29, 1512.33 413.30, 1515.13 412.01 C 1517.94 410.73, 1519.75 410.12, 1523.19 409.35 C 1526.63 408.59, 1528.66 408.28, 1532.33 408.18 C 1536.01 408.08, 1538.05 408.22, 1541.58 408.85 C 1545.12 409.49, 1546.96 410.05, 1550.00 411.36 C 1553.04 412.66, 1554.49 413.59, 1556.77 415.36 C 1559.05 417.13, 1559.97 418.25, 1561.40 420.22 C 1562.84 422.18, 1563.38 423.20, 1563.93 425.19 C 1564.47 427.18, 1564.50 428.22, 1564.13 430.17 C 1563.76 432.13, 1563.32 433.08, 1562.09 434.96 C 1560.85 436.85, 1559.95 437.81, 1557.95 439.60 C 1555.95 441.39, 1554.70 442.36, 1552.09 443.89 C 1549.48 445.43, 1547.85 446.17, 1544.89 447.28 C 1541.92 448.40, 1540.17 448.83, 1537.25 449.47 C 1534.33 450.11, 1532.80 450.10, 1530.30 450.49 C 1527.81 450.87, 1526.56 451.01, 1524.77 451.39 C 1522.98 451.77, 1522.05 451.84, 1521.34 452.39 C 1520.64 452.95, 1520.55 453.51, 1521.24 454.15 C 1521.93 454.78, 1522.86 455.20, 1524.79 455.56 C 1526.73 455.92, 1528.19 456.16, 1530.92 455.95 C 1533.65 455.75, 1535.30 455.31, 1538.44 454.51 C 1541.59 453.72, 1543.42 453.21, 1546.66 451.99 C 1549.90 450.77, 1551.66 450.05, 1554.65 448.39 C 1557.64 446.74, 1559.20 445.84, 1561.61 443.72 C 1564.01 441.60, 1565.19 440.34, 1566.68 437.80 C 1568.18 435.25, 1568.69 433.76, 1569.09 430.98 C 1569.50 428.21, 1569.42 426.68, 1568.70 423.92 C 1567.99 421.17, 1567.33 419.68, 1565.51 417.21 C 1563.68 414.74, 1562.35 413.55, 1559.59 411.57 C 1556.82 409.59, 1555.13 408.68, 1551.68 407.30 C 1548.23 405.91, 1546.21 405.35, 1542.33 404.67 C 1538.45 403.98, 1536.27 403.84, 1532.26 403.87 C 1528.26 403.90, 1526.12 404.17, 1522.31 404.82 C 1518.49 405.47, 1516.56 405.97, 1513.20 407.13 C 1509.83 408.28, 1508.05 408.90, 1505.50 410.60 C 1502.95 412.30, 1501.90 413.65, 1500.46 415.63 C 1499.02 417.60, 1498.67 418.82, 1498.30 420.47 C 1497.94 422.11, 1498.12 423.05, 1498.62 423.86 C 1499.12 424.68, 1499.98 424.80, 1500.82 424.54" style="stroke: black; fill: black;"/><path d="M 1568.86,477.45 C 1569.56 478.14, 1570.48 478.41, 1572.21 478.61 C 1573.94 478.81, 1575.13 478.85, 1577.49 478.45 C 1579.85 478.04, 1581.43 477.60, 1584.00 476.60 C 1586.57 475.61, 1587.92 474.83, 1590.34 473.47 C 1592.76 472.11, 1593.97 471.32, 1596.11 469.80 C 1598.24 468.28, 1599.31 467.48, 1601.01 465.86 C 1602.70 464.23, 1603.48 463.38, 1604.56 461.70 C 1605.65 460.02, 1606.08 459.14, 1606.43 457.44 C 1606.77 455.75, 1606.80 454.80, 1606.29 453.21 C 1605.78 451.63, 1605.28 450.71, 1603.89 449.52 C 1602.50 448.32, 1601.47 447.75, 1599.34 447.23 C 1597.21 446.70, 1595.85 446.62, 1593.22 446.87 C 1590.59 447.12, 1589.05 447.43, 1586.18 448.46 C 1583.32 449.48, 1581.74 450.34, 1578.90 452.01 C 1576.06 453.68, 1574.51 454.68, 1571.98 456.80 C 1569.46 458.91, 1568.13 460.11, 1566.28 462.59 C 1564.43 465.08, 1563.61 466.52, 1562.73 469.24 C 1561.84 471.96, 1561.60 473.48, 1561.85 476.20 C 1562.10 478.92, 1562.56 480.43, 1563.99 482.84 C 1565.43 485.26, 1566.51 486.54, 1569.04 488.28 C 1571.56 490.02, 1573.24 490.66, 1576.62 491.55 C 1579.99 492.44, 1581.99 492.61, 1585.90 492.72 C 1589.81 492.83, 1591.98 492.61, 1596.16 492.12 C 1600.34 491.62, 1602.90 491.11, 1606.81 490.26 C 1610.71 489.40, 1612.87 488.98, 1615.71 487.84 C 1618.55 486.71, 1620.08 485.62, 1621.01 484.60 C 1621.93 483.59, 1621.65 482.96, 1620.33 482.77 C 1619.01 482.58, 1617.31 483.01, 1614.41 483.65 C 1611.52 484.28, 1609.60 485.11, 1605.85 485.96 C 1602.10 486.81, 1599.62 487.43, 1595.67 487.88 C 1591.73 488.33, 1589.65 488.44, 1586.12 488.19 C 1582.59 487.95, 1580.83 487.54, 1578.03 486.65 C 1575.23 485.76, 1574.07 485.05, 1572.13 483.74 C 1570.19 482.44, 1569.41 481.72, 1568.33 480.13 C 1567.26 478.53, 1566.92 477.59, 1566.76 475.76 C 1566.60 473.92, 1566.78 472.92, 1567.55 470.95 C 1568.32 468.98, 1569.06 467.92, 1570.63 465.91 C 1572.20 463.91, 1573.22 462.74, 1575.42 460.94 C 1577.62 459.14, 1579.06 458.23, 1581.61 456.92 C 1584.16 455.60, 1585.72 455.15, 1588.19 454.38 C 1590.65 453.60, 1591.90 453.33, 1593.93 453.05 C 1595.96 452.76, 1596.90 452.86, 1598.33 452.96 C 1599.77 453.05, 1600.30 453.22, 1601.09 453.53 C 1601.89 453.85, 1602.09 454.01, 1602.30 454.55 C 1602.50 455.10, 1602.48 455.41, 1602.13 456.26 C 1601.77 457.10, 1601.46 457.65, 1600.52 458.76 C 1599.57 459.88, 1598.91 460.56, 1597.39 461.83 C 1595.87 463.10, 1594.88 463.84, 1592.91 465.10 C 1590.95 466.36, 1589.79 467.06, 1587.56 468.12 C 1585.32 469.19, 1584.04 469.64, 1581.73 470.43 C 1579.43 471.23, 1578.05 471.50, 1576.02 472.12 C 1573.99 472.74, 1573.03 472.94, 1571.57 473.54 C 1570.11 474.14, 1569.25 474.34, 1568.71 475.12 C 1568.17 475.90, 1568.16 476.75, 1568.86 477.45" style="stroke: black; fill: black;"/><path d="M 1657.20,461.25 C 1657.39 460.48, 1657.26 459.95, 1656.69 459.11 C 1656.12 458.27, 1655.65 457.70, 1654.34 457.03 C 1653.03 456.36, 1652.03 455.99, 1650.14 455.76 C 1648.26 455.54, 1647.12 455.59, 1644.89 455.92 C 1642.66 456.25, 1641.40 456.51, 1639.00 457.41 C 1636.60 458.30, 1635.21 458.90, 1632.88 460.41 C 1630.55 461.91, 1629.28 462.91, 1627.35 464.93 C 1625.43 466.95, 1624.47 468.17, 1623.25 470.52 C 1622.02 472.86, 1621.52 474.21, 1621.23 476.63 C 1620.93 479.05, 1621.01 480.44, 1621.77 482.62 C 1622.52 484.80, 1623.26 485.94, 1625.01 487.53 C 1626.76 489.12, 1628.00 489.81, 1630.50 490.55 C 1632.99 491.30, 1634.56 491.47, 1637.48 491.26 C 1640.40 491.06, 1642.09 490.59, 1645.10 489.54 C 1648.12 488.50, 1649.71 487.66, 1652.55 486.05 C 1655.39 484.43, 1656.92 483.48, 1659.32 481.46 C 1661.72 479.45, 1662.89 478.25, 1664.57 475.96 C 1666.24 473.68, 1666.90 472.39, 1667.68 470.06 C 1668.47 467.72, 1668.67 466.46, 1668.50 464.29 C 1668.33 462.11, 1667.94 460.94, 1666.82 459.18 C 1665.71 457.42, 1664.75 456.58, 1662.93 455.48 C 1661.11 454.39, 1659.90 454.11, 1657.74 453.73 C 1655.57 453.36, 1654.27 453.35, 1652.10 453.62 C 1649.94 453.88, 1648.58 454.32, 1646.91 455.06 C 1645.23 455.81, 1644.63 456.47, 1643.72 457.34 C 1642.81 458.22, 1642.49 458.73, 1642.38 459.44 C 1642.27 460.14, 1642.56 460.56, 1643.17 460.87 C 1643.77 461.19, 1644.29 461.04, 1645.39 461.00 C 1646.49 460.96, 1647.16 460.93, 1648.67 460.67 C 1650.18 460.41, 1651.25 459.98, 1652.92 459.73 C 1654.60 459.48, 1655.52 459.35, 1657.04 459.43 C 1658.55 459.50, 1659.32 459.64, 1660.49 460.12 C 1661.67 460.60, 1662.23 460.95, 1662.91 461.83 C 1663.58 462.72, 1663.84 463.25, 1663.86 464.54 C 1663.88 465.83, 1663.72 466.65, 1663.01 468.28 C 1662.29 469.91, 1661.73 470.90, 1660.28 472.69 C 1658.84 474.48, 1657.88 475.51, 1655.80 477.23 C 1653.72 478.94, 1652.38 479.89, 1649.88 481.25 C 1647.37 482.61, 1645.85 483.22, 1643.27 484.04 C 1640.70 484.85, 1639.27 485.09, 1636.98 485.32 C 1634.69 485.55, 1633.59 485.53, 1631.84 485.21 C 1630.09 484.89, 1629.33 484.55, 1628.24 483.73 C 1627.14 482.90, 1626.74 482.34, 1626.35 481.08 C 1625.96 479.83, 1625.94 479.00, 1626.27 477.44 C 1626.61 475.87, 1626.99 474.90, 1628.04 473.23 C 1629.09 471.57, 1629.90 470.62, 1631.52 469.09 C 1633.14 467.56, 1634.22 466.75, 1636.15 465.57 C 1638.07 464.39, 1639.22 463.89, 1641.14 463.18 C 1643.07 462.48, 1644.11 462.26, 1645.76 462.04 C 1647.41 461.82, 1648.13 461.92, 1649.39 462.07 C 1650.64 462.23, 1651.12 462.60, 1652.04 462.82 C 1652.96 463.03, 1653.25 463.13, 1653.99 463.15 C 1654.72 463.18, 1655.05 463.34, 1655.70 462.96 C 1656.34 462.58, 1657.00 462.02, 1657.20 461.25" style="stroke: black; fill: black;"/><path d="M 1690.07,460.00 C 1689.32 460.38, 1689.06 460.85, 1688.44 462.19 C 1687.83 463.53, 1687.42 464.40, 1686.99 466.69 C 1686.56 468.99, 1686.59 470.52, 1686.29 473.65 C 1686.00 476.78, 1685.93 478.66, 1685.52 482.34 C 1685.10 486.02, 1684.78 488.12, 1684.21 492.05 C 1683.64 495.97, 1683.29 498.13, 1682.67 501.97 C 1682.05 505.81, 1681.71 507.83, 1681.10 511.26 C 1680.49 514.69, 1679.96 516.42, 1679.63 519.14 C 1679.29 521.85, 1679.19 523.12, 1679.43 524.83 C 1679.67 526.54, 1680.03 527.18, 1680.83 527.69 C 1681.64 528.19, 1682.47 528.18, 1683.46 527.36 C 1684.45 526.53, 1685.13 525.70, 1685.78 523.57 C 1686.43 521.44, 1686.39 519.89, 1686.71 516.71 C 1687.04 513.54, 1686.93 511.53, 1687.42 507.70 C 1687.91 503.87, 1688.27 501.66, 1689.17 497.57 C 1690.07 493.49, 1690.62 491.29, 1691.90 487.28 C 1693.17 483.27, 1693.92 481.17, 1695.55 477.51 C 1697.18 473.84, 1698.11 472.03, 1700.04 468.95 C 1701.96 465.87, 1703.03 464.43, 1705.17 462.11 C 1707.30 459.78, 1708.54 458.85, 1710.70 457.34 C 1712.87 455.83, 1713.97 455.25, 1715.97 454.56 C 1717.98 453.87, 1718.99 453.75, 1720.72 453.89 C 1722.45 454.02, 1723.28 454.36, 1724.63 455.24 C 1725.98 456.12, 1726.59 456.81, 1727.44 458.29 C 1728.30 459.76, 1728.66 460.71, 1728.92 462.62 C 1729.18 464.52, 1729.18 465.67, 1728.75 467.82 C 1728.32 469.97, 1727.91 471.20, 1726.79 473.37 C 1725.66 475.54, 1724.88 476.72, 1723.15 478.66 C 1721.41 480.59, 1720.26 481.56, 1718.12 483.06 C 1715.97 484.56, 1714.68 485.21, 1712.42 486.17 C 1710.16 487.12, 1708.90 487.47, 1706.83 487.85 C 1704.75 488.23, 1703.71 488.24, 1702.04 488.05 C 1700.38 487.87, 1699.69 487.42, 1698.49 486.92 C 1697.29 486.42, 1696.93 486.04, 1696.05 485.56 C 1695.17 485.08, 1694.81 484.52, 1694.11 484.52 C 1693.41 484.52, 1692.74 484.79, 1692.55 485.56 C 1692.37 486.34, 1692.46 487.23, 1693.19 488.38 C 1693.93 489.53, 1694.62 490.38, 1696.24 491.32 C 1697.87 492.27, 1699.06 492.75, 1701.34 493.11 C 1703.62 493.48, 1705.01 493.50, 1707.65 493.15 C 1710.29 492.79, 1711.81 492.44, 1714.55 491.34 C 1717.28 490.25, 1718.77 489.44, 1721.33 487.66 C 1723.88 485.88, 1725.22 484.78, 1727.34 482.45 C 1729.46 480.13, 1730.53 478.76, 1731.94 476.04 C 1733.35 473.32, 1733.89 471.72, 1734.38 468.85 C 1734.88 465.99, 1734.89 464.39, 1734.40 461.72 C 1733.91 459.04, 1733.35 457.60, 1731.92 455.46 C 1730.49 453.31, 1729.41 452.27, 1727.25 450.99 C 1725.09 449.71, 1723.70 449.27, 1721.13 449.04 C 1718.56 448.82, 1717.09 448.99, 1714.42 449.84 C 1711.75 450.70, 1710.31 451.43, 1707.79 453.30 C 1705.27 455.17, 1704.07 456.49, 1701.83 459.20 C 1699.58 461.91, 1698.52 463.50, 1696.56 466.85 C 1694.60 470.21, 1693.68 472.11, 1692.02 475.96 C 1690.36 479.81, 1689.61 481.97, 1688.24 486.10 C 1686.88 490.23, 1686.30 492.46, 1685.20 496.61 C 1684.11 500.76, 1683.70 503.01, 1682.76 506.83 C 1681.82 510.65, 1681.20 512.58, 1680.52 515.72 C 1679.83 518.85, 1679.38 520.34, 1679.33 522.51 C 1679.28 524.69, 1679.69 525.60, 1680.25 526.60 C 1680.81 527.60, 1681.44 527.78, 1682.14 527.51 C 1682.83 527.23, 1683.19 526.77, 1683.74 525.24 C 1684.29 523.70, 1684.52 522.50, 1684.90 519.83 C 1685.27 517.17, 1685.22 515.36, 1685.61 511.92 C 1686.01 508.48, 1686.29 506.46, 1686.86 502.62 C 1687.44 498.79, 1687.81 496.64, 1688.49 492.74 C 1689.18 488.83, 1689.56 486.74, 1690.30 483.10 C 1691.05 479.46, 1691.59 477.62, 1692.21 474.52 C 1692.83 471.41, 1693.20 469.90, 1693.39 467.56 C 1693.59 465.22, 1693.43 464.27, 1693.18 462.82 C 1692.94 461.36, 1692.79 460.83, 1692.17 460.27 C 1691.54 459.71, 1690.81 459.62, 1690.07 460.00" style="stroke: black; fill: black;"/><path d="M 1758.94,416.31 C 1758.22 416.76, 1758.06 417.29, 1757.51 418.68 C 1756.96 420.07, 1756.59 420.91, 1756.18 423.25 C 1755.77 425.59, 1755.83 427.18, 1755.46 430.40 C 1755.09 433.62, 1754.91 435.57, 1754.32 439.34 C 1753.73 443.11, 1753.27 445.26, 1752.52 449.27 C 1751.77 453.28, 1751.28 455.46, 1750.56 459.39 C 1749.84 463.32, 1749.46 465.34, 1748.92 468.92 C 1748.38 472.50, 1747.99 474.24, 1747.84 477.28 C 1747.69 480.32, 1747.76 481.74, 1748.17 484.13 C 1748.57 486.52, 1748.94 487.54, 1749.87 489.22 C 1750.81 490.89, 1751.43 491.55, 1752.85 492.50 C 1754.27 493.45, 1755.16 493.78, 1756.97 493.96 C 1758.79 494.15, 1759.85 493.99, 1761.94 493.42 C 1764.02 492.84, 1765.11 492.34, 1767.41 491.09 C 1769.72 489.84, 1770.93 488.95, 1773.47 487.17 C 1776.01 485.38, 1777.38 484.23, 1780.10 482.14 C 1782.83 480.06, 1784.32 478.92, 1787.08 476.74 C 1789.84 474.55, 1791.29 473.37, 1793.90 471.22 C 1796.51 469.07, 1797.91 468.03, 1800.13 465.97 C 1802.34 463.91, 1803.38 462.87, 1804.96 460.92 C 1806.55 458.96, 1807.24 458.02, 1808.07 456.21 C 1808.90 454.41, 1809.19 453.50, 1809.11 451.89 C 1809.04 450.28, 1808.72 449.35, 1807.70 448.15 C 1806.68 446.95, 1805.78 446.32, 1804.00 445.88 C 1802.21 445.44, 1801.00 445.44, 1798.78 445.94 C 1796.55 446.44, 1795.23 447.01, 1792.87 448.37 C 1790.51 449.72, 1789.18 450.68, 1786.98 452.72 C 1784.78 454.76, 1783.60 456.03, 1781.86 458.56 C 1780.12 461.09, 1779.25 462.55, 1778.28 465.37 C 1777.30 468.19, 1776.93 469.77, 1776.99 472.67 C 1777.04 475.57, 1777.32 477.18, 1778.55 479.87 C 1779.77 482.56, 1780.71 484.01, 1783.10 486.13 C 1785.49 488.25, 1787.17 489.06, 1790.48 490.47 C 1793.79 491.88, 1795.76 492.39, 1799.65 493.16 C 1803.53 493.94, 1806.08 494.10, 1809.91 494.34 C 1813.74 494.59, 1815.84 494.75, 1818.82 494.40 C 1821.79 494.06, 1823.61 493.38, 1824.78 492.63 C 1825.94 491.87, 1825.83 491.18, 1824.62 490.61 C 1823.40 490.04, 1821.58 489.96, 1818.70 489.77 C 1815.82 489.58, 1813.84 489.88, 1810.21 489.65 C 1806.58 489.42, 1804.11 489.36, 1800.57 488.63 C 1797.02 487.90, 1795.26 487.29, 1792.48 485.99 C 1789.71 484.68, 1788.54 483.76, 1786.69 482.10 C 1784.84 480.45, 1784.14 479.59, 1783.23 477.70 C 1782.33 475.81, 1782.13 474.73, 1782.17 472.65 C 1782.21 470.58, 1782.53 469.44, 1783.43 467.32 C 1784.32 465.21, 1785.11 464.04, 1786.66 462.05 C 1788.21 460.06, 1789.27 459.00, 1791.16 457.38 C 1793.05 455.76, 1794.22 455.04, 1796.10 453.95 C 1797.97 452.85, 1799.04 452.51, 1800.53 451.91 C 1802.03 451.31, 1802.67 451.17, 1803.59 450.95 C 1804.51 450.73, 1804.77 450.65, 1805.12 450.79 C 1805.46 450.93, 1805.54 451.02, 1805.33 451.65 C 1805.11 452.28, 1804.90 452.76, 1804.04 453.94 C 1803.19 455.12, 1802.56 455.91, 1801.06 457.56 C 1799.55 459.20, 1798.58 460.18, 1796.52 462.18 C 1794.47 464.17, 1793.25 465.37, 1790.77 467.53 C 1788.29 469.68, 1786.86 470.85, 1784.13 472.94 C 1781.40 475.03, 1779.88 476.11, 1777.11 477.98 C 1774.34 479.85, 1772.82 480.76, 1770.28 482.29 C 1767.75 483.82, 1766.49 484.50, 1764.43 485.63 C 1762.37 486.77, 1761.49 487.25, 1759.98 487.97 C 1758.47 488.69, 1757.88 488.97, 1756.87 489.22 C 1755.87 489.46, 1755.60 489.55, 1754.96 489.19 C 1754.32 488.83, 1754.09 488.53, 1753.68 487.39 C 1753.27 486.26, 1753.07 485.49, 1752.90 483.50 C 1752.73 481.52, 1752.75 480.28, 1752.82 477.47 C 1752.90 474.67, 1752.90 472.95, 1753.26 469.48 C 1753.62 466.01, 1753.95 463.99, 1754.63 460.12 C 1755.31 456.24, 1755.79 454.08, 1756.65 450.11 C 1757.51 446.13, 1758.03 444.00, 1758.93 440.25 C 1759.83 436.51, 1760.42 434.60, 1761.15 431.37 C 1761.88 428.14, 1762.34 426.54, 1762.56 424.09 C 1762.78 421.63, 1762.55 420.63, 1762.26 419.10 C 1761.96 417.56, 1761.74 416.97, 1761.08 416.41 C 1760.42 415.86, 1759.65 415.85, 1758.94 416.31" style="stroke: black; fill: black;"/></svg>