<svg xmlns="http://www.w3.org/2000/svg" id="canvas" viewBox="285.954 368.738 1315.671 127.440"><path d="M 340.23,374.61 C 340.05 373.78, 339.56 373.31, 338.62 372.76 C 337.69 372.20, 336.99 372.01, 335.55 371.85 C 334.10 371.68, 333.16 371.70, 331.41 371.94 C 329.66 372.18, 328.71 372.50, 326.80 373.07 C 324.90 373.63, 323.89 373.98, 321.88 374.78 C 319.87 375.57, 318.77 376.04, 316.77 377.04 C 314.76 378.04, 313.72 378.62, 311.86 379.78 C 309.99 380.94, 309.03 381.56, 307.44 382.84 C 305.86 384.12, 305.08 384.79, 303.93 386.18 C 302.78 387.57, 302.27 388.28, 301.70 389.79 C 301.12 391.29, 300.92 392.14, 301.05 393.70 C 301.19 395.25, 301.49 396.15, 302.39 397.57 C 303.29 398.99, 304.00 399.64, 305.58 400.78 C 307.16 401.91, 308.16 402.36, 310.28 403.26 C 312.40 404.16, 313.68 404.51, 316.18 405.28 C 318.68 406.06, 320.05 406.39, 322.77 407.14 C 325.49 407.90, 326.99 408.19, 329.78 409.05 C 332.57 409.90, 334.05 410.38, 336.72 411.42 C 339.40 412.46, 340.72 413.05, 343.15 414.25 C 345.58 415.45, 346.78 416.07, 348.88 417.42 C 350.98 418.76, 351.97 419.51, 353.65 420.98 C 355.32 422.45, 356.06 423.23, 357.26 424.75 C 358.46 426.27, 358.93 427.11, 359.64 428.59 C 360.35 430.07, 360.58 430.80, 360.80 432.16 C 361.02 433.52, 361.00 434.16, 360.76 435.39 C 360.51 436.62, 360.29 437.22, 359.59 438.31 C 358.90 439.39, 358.48 439.87, 357.28 440.81 C 356.08 441.75, 355.36 442.22, 353.60 443.02 C 351.83 443.83, 350.78 444.16, 348.45 444.82 C 346.11 445.48, 344.77 445.82, 341.94 446.31 C 339.10 446.80, 337.47 447.04, 334.27 447.26 C 331.08 447.48, 329.32 447.51, 325.95 447.42 C 322.59 447.33, 320.78 447.19, 317.45 446.82 C 314.12 446.44, 312.39 446.19, 309.31 445.55 C 306.23 444.92, 304.74 444.42, 302.04 443.65 C 299.34 442.87, 298.15 442.35, 295.81 441.67 C 293.48 440.98, 291.67 440.10, 290.37 440.23 C 289.06 440.36, 288.57 441.13, 289.28 442.31 C 289.99 443.49, 291.65 444.86, 293.91 446.13 C 296.18 447.40, 297.70 447.82, 300.60 448.66 C 303.50 449.50, 305.14 449.75, 308.41 450.32 C 311.68 450.89, 313.46 451.13, 316.93 451.50 C 320.40 451.88, 322.26 452.04, 325.77 452.21 C 329.28 452.38, 331.10 452.42, 334.49 452.36 C 337.88 452.29, 339.62 452.25, 342.73 451.90 C 345.84 451.54, 347.37 451.33, 350.05 450.59 C 352.74 449.85, 353.99 449.33, 356.14 448.21 C 358.30 447.08, 359.25 446.40, 360.84 444.96 C 362.42 443.52, 363.10 442.72, 364.08 440.99 C 365.06 439.25, 365.42 438.23, 365.75 436.31 C 366.09 434.39, 366.05 433.37, 365.76 431.40 C 365.47 429.43, 365.19 428.42, 364.32 426.45 C 363.45 424.48, 362.85 423.45, 361.43 421.55 C 360.01 419.66, 359.13 418.72, 357.22 416.98 C 355.30 415.24, 354.18 414.38, 351.86 412.84 C 349.53 411.31, 348.23 410.60, 345.60 409.30 C 342.97 407.99, 341.53 407.45, 338.71 406.34 C 335.90 405.22, 334.36 404.72, 331.52 403.73 C 328.68 402.74, 327.20 402.27, 324.51 401.39 C 321.83 400.51, 320.47 400.12, 318.09 399.33 C 315.71 398.54, 314.52 398.13, 312.62 397.43 C 310.72 396.72, 309.88 396.38, 308.60 395.79 C 307.32 395.20, 306.87 394.97, 306.23 394.46 C 305.58 393.96, 305.43 393.81, 305.36 393.27 C 305.29 392.73, 305.41 392.47, 305.88 391.76 C 306.35 391.05, 306.73 390.60, 307.71 389.71 C 308.69 388.81, 309.37 388.27, 310.79 387.28 C 312.21 386.28, 313.11 385.73, 314.82 384.75 C 316.54 383.78, 317.51 383.27, 319.36 382.41 C 321.21 381.54, 322.24 381.13, 324.07 380.44 C 325.89 379.75, 326.85 379.42, 328.49 378.97 C 330.13 378.52, 330.89 378.39, 332.27 378.21 C 333.65 378.02, 334.29 378.14, 335.38 378.04 C 336.47 377.94, 336.88 377.95, 337.72 377.72 C 338.55 377.49, 339.05 377.51, 339.56 376.89 C 340.06 376.27, 340.42 375.44, 340.23 374.61" style="stroke: black; fill: black;"/><path d="M 397.54,411.36 C 397.51 410.54, 397.15 410.08, 396.43 409.47 C 395.71 408.87, 395.14 408.60, 393.94 408.35 C 392.74 408.10, 391.88 408.07, 390.42 408.22 C 388.96 408.37, 388.22 408.64, 386.65 409.10 C 385.08 409.56, 384.27 409.83, 382.57 410.54 C 380.88 411.25, 379.94 411.67, 378.18 412.67 C 376.42 413.67, 375.48 414.26, 373.76 415.54 C 372.05 416.82, 371.16 417.55, 369.62 419.07 C 368.09 420.58, 367.30 421.41, 366.09 423.11 C 364.88 424.82, 364.30 425.74, 363.56 427.59 C 362.83 429.44, 362.55 430.45, 362.42 432.36 C 362.29 434.27, 362.35 435.30, 362.92 437.14 C 363.49 438.99, 363.99 439.97, 365.29 441.57 C 366.59 443.18, 367.47 443.94, 369.41 445.18 C 371.36 446.42, 372.52 446.94, 375.00 447.77 C 377.49 448.60, 378.94 448.96, 381.84 449.32 C 384.74 449.69, 386.37 449.65, 389.52 449.60 C 392.67 449.55, 394.37 449.42, 397.58 449.08 C 400.79 448.74, 402.47 448.49, 405.58 447.89 C 408.69 447.29, 410.28 446.94, 413.12 446.10 C 415.96 445.25, 417.36 444.77, 419.80 443.67 C 422.23 442.57, 423.52 441.88, 425.31 440.61 C 427.09 439.35, 427.78 438.57, 428.71 437.34 C 429.64 436.12, 429.97 435.31, 429.97 434.50 C 429.97 433.68, 429.49 433.31, 428.73 433.27 C 427.97 433.23, 427.41 433.72, 426.18 434.29 C 424.95 434.86, 424.28 435.26, 422.57 436.14 C 420.85 437.01, 419.80 437.72, 417.59 438.67 C 415.39 439.62, 414.14 440.07, 411.53 440.89 C 408.93 441.70, 407.46 442.16, 404.57 442.74 C 401.67 443.33, 400.07 443.57, 397.07 443.82 C 394.07 444.07, 392.45 444.11, 389.57 444.01 C 386.69 443.91, 385.22 443.71, 382.67 443.33 C 380.11 442.94, 378.87 442.69, 376.80 442.08 C 374.74 441.47, 373.83 441.07, 372.34 440.27 C 370.84 439.46, 370.25 438.99, 369.33 438.05 C 368.41 437.11, 368.10 436.63, 367.73 435.58 C 367.36 434.53, 367.34 433.98, 367.48 432.80 C 367.62 431.62, 367.82 430.96, 368.43 429.69 C 369.04 428.42, 369.50 427.74, 370.54 426.45 C 371.57 425.16, 372.27 424.48, 373.61 423.26 C 374.95 422.04, 375.75 421.40, 377.26 420.34 C 378.76 419.27, 379.60 418.78, 381.14 417.93 C 382.67 417.09, 383.49 416.72, 384.93 416.11 C 386.36 415.49, 387.10 415.22, 388.32 414.88 C 389.54 414.54, 390.05 414.47, 391.03 414.38 C 392.01 414.29, 392.45 414.44, 393.22 414.42 C 393.99 414.41, 394.23 414.47, 394.91 414.31 C 395.58 414.14, 396.05 414.20, 396.58 413.61 C 397.10 413.02, 397.57 412.19, 397.54 411.36" style="stroke: black; fill: black;"/><path d="M 431.96,413.01 C 431.31 413.35, 431.16 413.64, 430.84 414.36 C 430.53 415.07, 430.39 415.52, 430.38 416.59 C 430.38 417.66, 430.55 418.35, 430.82 419.70 C 431.08 421.06, 431.35 421.82, 431.72 423.35 C 432.09 424.88, 432.27 425.72, 432.66 427.35 C 433.05 428.97, 433.25 429.84, 433.66 431.47 C 434.06 433.10, 434.27 433.95, 434.69 435.49 C 435.11 437.04, 435.21 437.89, 435.76 439.20 C 436.31 440.51, 436.74 441.20, 437.44 442.02 C 438.14 442.84, 438.59 443.16, 439.28 443.30 C 439.98 443.43, 440.48 443.23, 440.92 442.68 C 441.37 442.14, 441.46 441.60, 441.50 440.57 C 441.55 439.54, 441.40 438.82, 441.14 437.52 C 440.87 436.22, 440.54 435.54, 440.18 434.07 C 439.82 432.60, 439.67 431.76, 439.34 430.17 C 439.01 428.58, 438.82 427.72, 438.53 426.12 C 438.24 424.52, 438.11 423.69, 437.90 422.17 C 437.68 420.65, 437.67 419.84, 437.45 418.50 C 437.23 417.16, 437.17 416.46, 436.80 415.46 C 436.42 414.46, 436.14 414.08, 435.60 413.52 C 435.06 412.95, 434.81 412.74, 434.09 412.64 C 433.36 412.53, 432.61 412.66, 431.96 413.01" style="stroke: black; fill: black;"/><path d="M 433.17,393.33 C 433.96 393.60, 434.37 393.66, 434.38 393.51 C 434.39 393.37, 433.87 393.04, 433.23 392.59 C 432.60 392.14, 431.94 391.58, 431.22 391.27 C 430.50 390.96, 429.78 390.86, 429.62 391.04 C 429.46 391.22, 429.72 391.72, 430.43 392.17 C 431.14 392.63, 432.38 393.06, 433.17 393.33" style="stroke: black; fill: black;"/><path d="M 462.52,429.20 C 463.11 429.75, 463.61 429.77, 464.57 429.80 C 465.53 429.83, 466.09 429.76, 467.32 429.37 C 468.54 428.99, 469.31 428.60, 470.69 427.88 C 472.06 427.16, 472.80 426.66, 474.19 425.78 C 475.58 424.89, 476.34 424.39, 477.65 423.44 C 478.97 422.48, 479.64 422.01, 480.77 421.01 C 481.89 420.00, 482.45 419.50, 483.28 418.40 C 484.10 417.30, 484.51 416.73, 484.90 415.52 C 485.29 414.30, 485.42 413.57, 485.25 412.31 C 485.07 411.05, 484.82 410.30, 484.04 409.21 C 483.26 408.12, 482.65 407.57, 481.35 406.86 C 480.04 406.15, 479.20 405.90, 477.52 405.66 C 475.84 405.41, 474.86 405.43, 472.95 405.62 C 471.04 405.82, 469.99 406.04, 467.98 406.64 C 465.97 407.23, 464.89 407.65, 462.91 408.61 C 460.94 409.58, 459.90 410.17, 458.10 411.47 C 456.30 412.77, 455.39 413.52, 453.92 415.11 C 452.45 416.70, 451.74 417.59, 450.75 419.40 C 449.77 421.21, 449.36 422.21, 448.98 424.16 C 448.61 426.11, 448.55 427.18, 448.87 429.14 C 449.19 431.10, 449.55 432.15, 450.60 433.95 C 451.65 435.76, 452.42 436.66, 454.13 438.15 C 455.84 439.65, 456.92 440.34, 459.16 441.45 C 461.41 442.55, 462.74 443.01, 465.35 443.67 C 467.97 444.34, 469.44 444.54, 472.23 444.77 C 475.02 445.00, 476.52 445.00, 479.31 444.83 C 482.10 444.66, 483.55 444.45, 486.18 443.92 C 488.81 443.39, 490.14 443.03, 492.47 442.17 C 494.80 441.30, 495.91 440.77, 497.84 439.61 C 499.78 438.44, 500.65 437.78, 502.14 436.33 C 503.63 434.89, 504.29 434.06, 505.29 432.39 C 506.29 430.72, 506.64 429.74, 507.16 427.97 C 507.69 426.19, 507.78 425.22, 507.92 423.51 C 508.06 421.79, 507.98 420.89, 507.85 419.37 C 507.72 417.85, 507.58 417.08, 507.29 415.90 C 506.99 414.73, 506.93 414.13, 506.38 413.49 C 505.83 412.85, 505.34 412.68, 504.52 412.70 C 503.71 412.72, 502.98 412.96, 502.31 413.58 C 501.64 414.20, 501.29 414.71, 501.16 415.82 C 501.02 416.92, 501.27 417.68, 501.64 419.09 C 502.00 420.51, 502.49 421.31, 502.98 422.88 C 503.47 424.44, 503.70 425.36, 504.10 426.90 C 504.50 428.45, 504.67 429.28, 504.99 430.62 C 505.32 431.97, 505.35 432.66, 505.72 433.63 C 506.10 434.60, 506.22 435.05, 506.86 435.46 C 507.50 435.88, 508.12 435.92, 508.92 435.70 C 509.73 435.47, 510.35 435.13, 510.87 434.35 C 511.39 433.57, 511.54 432.98, 511.53 431.81 C 511.52 430.65, 511.13 429.90, 510.83 428.54 C 510.53 427.17, 510.24 426.41, 510.02 425.00 C 509.80 423.59, 509.74 422.85, 509.74 421.48 C 509.74 420.10, 509.78 419.41, 510.02 418.14 C 510.27 416.87, 510.45 416.25, 510.95 415.12 C 511.45 414.00, 511.78 413.44, 512.52 412.49 C 513.27 411.54, 513.69 411.08, 514.67 410.36 C 515.65 409.64, 516.22 409.32, 517.42 408.87 C 518.63 408.42, 519.33 408.25, 520.72 408.10 C 522.10 407.94, 522.88 407.93, 524.36 408.11 C 525.85 408.30, 526.65 408.48, 528.13 409.02 C 529.61 409.56, 530.38 409.92, 531.76 410.82 C 533.14 411.71, 533.81 412.26, 535.03 413.50 C 536.24 414.73, 536.81 415.48, 537.85 416.99 C 538.88 418.49, 539.37 419.34, 540.20 421.03 C 541.04 422.73, 541.35 423.67, 542.02 425.45 C 542.70 427.23, 542.98 428.29, 543.57 429.93 C 544.16 431.58, 544.41 432.45, 544.99 433.66 C 545.57 434.87, 545.89 435.26, 546.46 435.96 C 547.04 436.66, 547.30 437.01, 547.88 437.15 C 548.46 437.30, 548.97 437.11, 549.36 436.67 C 549.75 436.23, 549.72 435.85, 549.83 434.96 C 549.94 434.08, 550.06 433.61, 549.91 432.25 C 549.75 430.89, 549.56 429.95, 549.05 428.17 C 548.55 426.40, 548.15 425.32, 547.39 423.38 C 546.64 421.45, 546.25 420.43, 545.28 418.50 C 544.30 416.57, 543.78 415.55, 542.53 413.75 C 541.28 411.95, 540.56 411.04, 539.02 409.51 C 537.48 407.98, 536.61 407.26, 534.83 406.10 C 533.04 404.94, 532.06 404.43, 530.11 403.70 C 528.15 402.97, 527.08 402.69, 525.06 402.45 C 523.05 402.20, 521.97 402.23, 520.04 402.47 C 518.11 402.72, 517.13 402.99, 515.40 403.69 C 513.67 404.39, 512.82 404.88, 511.38 405.96 C 509.95 407.05, 509.29 407.74, 508.21 409.12 C 507.13 410.50, 506.69 411.31, 505.97 412.89 C 505.26 414.46, 505.03 415.31, 504.64 416.97 C 504.25 418.63, 504.18 419.50, 504.03 421.19 C 503.87 422.88, 503.88 423.76, 503.87 425.42 C 503.86 427.08, 503.88 427.98, 503.98 429.49 C 504.08 431.01, 503.99 431.84, 504.37 433.00 C 504.75 434.17, 505.09 434.71, 505.87 435.31 C 506.65 435.90, 507.41 436.01, 508.28 435.96 C 509.15 435.91, 509.72 435.66, 510.24 435.04 C 510.75 434.42, 510.78 433.93, 510.84 432.86 C 510.90 431.78, 510.70 431.09, 510.55 429.67 C 510.40 428.25, 510.31 427.40, 510.09 425.74 C 509.87 424.08, 509.70 423.06, 509.44 421.38 C 509.18 419.70, 509.13 418.78, 508.80 417.34 C 508.46 415.90, 508.42 415.13, 507.78 414.18 C 507.13 413.23, 506.52 412.84, 505.59 412.60 C 504.66 412.36, 503.86 412.60, 503.12 412.99 C 502.38 413.37, 502.12 413.75, 501.89 414.52 C 501.66 415.28, 501.88 415.74, 501.96 416.80 C 502.04 417.86, 502.21 418.53, 502.30 419.80 C 502.39 421.07, 502.47 421.79, 502.41 423.15 C 502.35 424.50, 502.31 425.24, 501.99 426.57 C 501.68 427.91, 501.52 428.60, 500.85 429.82 C 500.17 431.03, 499.76 431.61, 498.63 432.66 C 497.51 433.72, 496.82 434.22, 495.23 435.10 C 493.64 435.97, 492.70 436.38, 490.68 437.04 C 488.66 437.70, 487.47 437.99, 485.13 438.39 C 482.80 438.80, 481.49 438.96, 479.02 439.06 C 476.54 439.16, 475.20 439.13, 472.75 438.89 C 470.31 438.65, 469.03 438.44, 466.82 437.89 C 464.60 437.33, 463.51 436.94, 461.69 436.11 C 459.88 435.29, 459.06 434.77, 457.75 433.77 C 456.44 432.77, 455.91 432.21, 455.15 431.11 C 454.38 430.01, 454.15 429.43, 453.92 428.25 C 453.69 427.08, 453.72 426.45, 454.01 425.22 C 454.31 423.98, 454.59 423.32, 455.37 422.08 C 456.16 420.84, 456.73 420.17, 457.93 419.00 C 459.14 417.82, 459.90 417.21, 461.41 416.21 C 462.91 415.21, 463.80 414.73, 465.45 413.99 C 467.10 413.24, 468.03 412.93, 469.66 412.49 C 471.29 412.04, 472.15 411.91, 473.59 411.76 C 475.02 411.61, 475.73 411.65, 476.83 411.72 C 477.93 411.78, 478.38 411.94, 479.10 412.10 C 479.81 412.26, 480.05 412.35, 480.42 412.52 C 480.79 412.68, 480.91 412.69, 480.95 412.92 C 480.99 413.16, 480.94 413.26, 480.63 413.68 C 480.32 414.10, 480.07 414.40, 479.41 415.01 C 478.74 415.62, 478.29 416.02, 477.29 416.73 C 476.30 417.44, 475.67 417.85, 474.44 418.58 C 473.20 419.32, 472.47 419.74, 471.13 420.41 C 469.78 421.08, 469.03 421.33, 467.72 421.95 C 466.42 422.56, 465.65 422.84, 464.61 423.49 C 463.58 424.14, 463.15 424.49, 462.55 425.21 C 461.95 425.93, 461.62 426.28, 461.62 427.08 C 461.61 427.88, 461.93 428.66, 462.52 429.20" style="stroke: black; fill: black;"/><path d="M 582.03,407.82 C 582.16 406.98, 581.90 406.38, 581.25 405.66 C 580.60 404.95, 579.98 404.61, 578.78 404.26 C 577.58 403.90, 576.73 403.78, 575.25 403.87 C 573.78 403.96, 572.98 404.21, 571.42 404.70 C 569.85 405.18, 569.04 405.50, 567.43 406.31 C 565.82 407.13, 564.95 407.63, 563.36 408.76 C 561.77 409.89, 560.93 410.56, 559.48 411.97 C 558.04 413.38, 557.29 414.17, 556.12 415.83 C 554.95 417.49, 554.39 418.41, 553.65 420.25 C 552.91 422.08, 552.61 423.08, 552.44 425.00 C 552.27 426.93, 552.31 427.98, 552.80 429.86 C 553.29 431.74, 553.73 432.72, 554.91 434.40 C 556.09 436.07, 556.89 436.90, 558.71 438.26 C 560.52 439.61, 561.64 440.22, 563.99 441.18 C 566.34 442.13, 567.70 442.51, 570.47 443.04 C 573.23 443.57, 574.77 443.73, 577.81 443.81 C 580.85 443.90, 582.53 443.75, 585.68 443.48 C 588.83 443.22, 590.47 443.02, 593.55 442.50 C 596.64 441.99, 598.23 441.69, 601.11 440.93 C 603.99 440.16, 605.43 439.69, 607.96 438.67 C 610.49 437.65, 611.68 437.05, 613.76 435.83 C 615.85 434.60, 616.81 433.94, 618.41 432.53 C 620.00 431.12, 620.70 430.35, 621.75 428.79 C 622.80 427.22, 623.18 426.36, 623.64 424.70 C 624.11 423.05, 624.19 422.14, 624.06 420.51 C 623.93 418.88, 623.67 418.00, 623.01 416.54 C 622.34 415.08, 621.83 414.38, 620.73 413.19 C 619.64 412.01, 618.95 411.46, 617.54 410.61 C 616.12 409.76, 615.29 409.40, 613.67 408.95 C 612.06 408.50, 611.16 408.37, 609.46 408.34 C 607.76 408.32, 606.85 408.40, 605.17 408.83 C 603.50 409.27, 602.60 409.60, 601.08 410.51 C 599.56 411.41, 598.79 412.00, 597.57 413.34 C 596.36 414.68, 595.79 415.51, 595.02 417.21 C 594.24 418.90, 593.93 419.89, 593.72 421.81 C 593.51 423.74, 593.53 424.82, 593.97 426.83 C 594.41 428.85, 594.79 429.94, 595.94 431.88 C 597.08 433.82, 597.87 434.82, 599.70 436.53 C 601.53 438.24, 602.65 439.06, 605.10 440.42 C 607.55 441.79, 608.99 442.38, 611.95 443.33 C 614.90 444.28, 616.62 444.59, 619.87 445.18 C 623.12 445.77, 624.87 445.93, 628.20 446.28 C 631.52 446.62, 633.49 446.90, 636.50 446.90 C 639.51 446.90, 641.04 446.71, 643.24 446.27 C 645.43 445.82, 646.67 445.37, 647.49 444.68 C 648.32 443.98, 648.24 443.37, 647.36 442.80 C 646.48 442.23, 645.23 442.10, 643.08 441.81 C 640.94 441.51, 639.51 441.45, 636.63 441.31 C 633.75 441.17, 631.83 441.37, 628.68 441.11 C 625.53 440.84, 623.86 440.64, 620.89 440.00 C 617.91 439.35, 616.39 438.85, 613.81 437.90 C 611.22 436.95, 610.00 436.39, 607.96 435.27 C 605.91 434.14, 605.02 433.52, 603.58 432.25 C 602.14 430.99, 601.59 430.28, 600.74 428.95 C 599.89 427.62, 599.66 426.92, 599.35 425.62 C 599.04 424.31, 599.06 423.64, 599.20 422.42 C 599.34 421.20, 599.56 420.58, 600.05 419.51 C 600.55 418.44, 600.91 417.91, 601.68 417.06 C 602.45 416.22, 602.93 415.85, 603.91 415.28 C 604.88 414.70, 605.46 414.47, 606.54 414.20 C 607.63 413.93, 608.22 413.88, 609.33 413.92 C 610.45 413.96, 611.04 414.10, 612.12 414.41 C 613.19 414.72, 613.76 414.96, 614.70 415.48 C 615.64 416.00, 616.09 416.33, 616.81 417.00 C 617.53 417.68, 617.83 418.06, 618.29 418.87 C 618.74 419.67, 618.94 420.12, 619.08 421.03 C 619.22 421.94, 619.25 422.42, 618.98 423.41 C 618.71 424.40, 618.49 424.94, 617.72 425.99 C 616.95 427.05, 616.44 427.62, 615.14 428.68 C 613.83 429.74, 613.02 430.29, 611.19 431.28 C 609.36 432.27, 608.28 432.75, 605.98 433.62 C 603.68 434.50, 602.35 434.92, 599.69 435.65 C 597.03 436.37, 595.56 436.76, 592.68 437.24 C 589.80 437.72, 588.22 437.89, 585.30 438.05 C 582.38 438.21, 580.82 438.21, 578.08 438.04 C 575.34 437.86, 573.99 437.65, 571.61 437.17 C 569.22 436.70, 568.07 436.38, 566.14 435.67 C 564.22 434.95, 563.37 434.50, 561.98 433.60 C 560.59 432.71, 560.03 432.20, 559.19 431.18 C 558.35 430.17, 558.08 429.65, 557.78 428.53 C 557.47 427.41, 557.47 426.80, 557.65 425.58 C 557.82 424.35, 558.05 423.68, 558.65 422.41 C 559.26 421.13, 559.71 420.44, 560.68 419.20 C 561.65 417.97, 562.28 417.34, 563.50 416.24 C 564.73 415.15, 565.47 414.61, 566.80 413.71 C 568.13 412.82, 568.88 412.40, 570.17 411.75 C 571.46 411.10, 572.17 410.83, 573.27 410.46 C 574.37 410.09, 574.84 409.98, 575.68 409.91 C 576.51 409.83, 576.80 410.02, 577.45 410.08 C 578.09 410.15, 578.26 410.28, 578.89 410.23 C 579.52 410.18, 579.98 410.32, 580.61 409.84 C 581.23 409.35, 581.90 408.65, 582.03 407.82" style="stroke: black; fill: black;"/><path d="M 708.47,387.88 C 707.88 388.31, 707.79 388.63, 707.57 389.42 C 707.34 390.22, 707.29 390.66, 707.35 391.84 C 707.42 393.02, 707.62 393.73, 707.88 395.32 C 708.15 396.90, 708.39 397.83, 708.69 399.76 C 708.99 401.69, 709.13 402.77, 709.38 404.95 C 709.64 407.13, 709.74 408.31, 709.97 410.64 C 710.21 412.96, 710.31 414.20, 710.55 416.57 C 710.78 418.94, 710.90 420.20, 711.16 422.48 C 711.41 424.76, 711.55 425.95, 711.81 427.98 C 712.07 430.02, 712.21 431.02, 712.44 432.65 C 712.68 434.28, 712.62 435.05, 712.99 436.13 C 713.35 437.21, 713.55 437.64, 714.25 438.04 C 714.96 438.45, 715.64 438.45, 716.50 438.15 C 717.36 437.86, 718.01 437.43, 718.56 436.56 C 719.12 435.69, 719.14 435.04, 719.26 433.81 C 719.38 432.59, 719.08 431.83, 719.16 430.43 C 719.25 429.04, 719.30 428.25, 719.69 426.84 C 720.08 425.43, 720.36 424.71, 721.11 423.37 C 721.85 422.02, 722.31 421.34, 723.42 420.11 C 724.52 418.88, 725.20 418.25, 726.62 417.20 C 728.04 416.14, 728.87 415.61, 730.53 414.82 C 732.19 414.03, 733.11 413.68, 734.91 413.26 C 736.72 412.83, 737.71 412.71, 739.54 412.69 C 741.37 412.66, 742.33 412.75, 744.04 413.13 C 745.76 413.51, 746.61 413.83, 748.12 414.59 C 749.64 415.36, 750.37 415.87, 751.61 416.95 C 752.84 418.03, 753.40 418.70, 754.30 419.98 C 755.19 421.26, 755.56 421.98, 756.07 423.36 C 756.57 424.73, 756.72 425.47, 756.82 426.85 C 756.92 428.23, 756.87 428.94, 756.58 430.24 C 756.30 431.55, 756.07 432.21, 755.40 433.39 C 754.74 434.56, 754.30 435.13, 753.28 436.14 C 752.26 437.14, 751.64 437.59, 750.28 438.40 C 748.93 439.21, 748.14 439.62, 746.49 440.20 C 744.84 440.78, 743.89 440.99, 742.01 441.31 C 740.14 441.63, 739.09 441.74, 737.12 441.81 C 735.14 441.87, 734.05 441.83, 732.13 441.65 C 730.22 441.47, 729.23 441.29, 727.54 440.90 C 725.86 440.51, 725.02 440.26, 723.69 439.69 C 722.36 439.12, 721.89 438.67, 720.90 438.06 C 719.91 437.46, 719.56 437.08, 718.75 436.66 C 717.95 436.24, 717.55 435.90, 716.88 435.97 C 716.21 436.04, 715.65 436.33, 715.41 437.01 C 715.17 437.69, 715.22 438.33, 715.69 439.36 C 716.16 440.39, 716.61 441.13, 717.77 442.16 C 718.93 443.19, 719.79 443.69, 721.47 444.51 C 723.15 445.33, 724.16 445.68, 726.17 446.24 C 728.17 446.80, 729.29 447.05, 731.51 447.32 C 733.73 447.59, 734.99 447.67, 737.29 447.61 C 739.59 447.55, 740.79 447.43, 743.02 447.03 C 745.26 446.62, 746.42 446.36, 748.46 445.59 C 750.51 444.82, 751.50 444.29, 753.25 443.17 C 754.99 442.05, 755.81 441.44, 757.19 440.00 C 758.58 438.57, 759.25 437.72, 760.18 435.99 C 761.10 434.26, 761.43 433.25, 761.82 431.35 C 762.22 429.45, 762.28 428.43, 762.15 426.47 C 762.01 424.51, 761.82 423.46, 761.15 421.54 C 760.48 419.62, 759.98 418.63, 758.79 416.88 C 757.60 415.14, 756.84 414.26, 755.20 412.83 C 753.56 411.40, 752.58 410.74, 750.59 409.73 C 748.61 408.72, 747.49 408.30, 745.28 407.77 C 743.06 407.25, 741.84 407.11, 739.52 407.10 C 737.19 407.09, 735.94 407.23, 733.66 407.73 C 731.37 408.24, 730.20 408.66, 728.10 409.62 C 726.00 410.59, 724.96 411.24, 723.17 412.58 C 721.38 413.92, 720.55 414.74, 719.15 416.33 C 717.75 417.92, 717.17 418.80, 716.16 420.53 C 715.14 422.25, 714.75 423.19, 714.07 424.95 C 713.39 426.71, 713.20 427.66, 712.75 429.34 C 712.31 431.01, 711.92 431.89, 711.87 433.34 C 711.82 434.78, 711.94 435.60, 712.49 436.57 C 713.05 437.53, 713.78 437.90, 714.64 438.15 C 715.50 438.41, 716.17 438.33, 716.80 437.85 C 717.44 437.37, 717.63 436.89, 717.82 435.75 C 718.00 434.60, 717.83 433.79, 717.73 432.12 C 717.63 430.45, 717.52 429.44, 717.34 427.39 C 717.16 425.35, 717.05 424.19, 716.85 421.92 C 716.65 419.64, 716.54 418.40, 716.34 416.04 C 716.14 413.68, 716.04 412.45, 715.86 410.12 C 715.68 407.78, 715.60 406.59, 715.43 404.37 C 715.27 402.14, 715.20 401.01, 715.01 398.98 C 714.82 396.95, 714.77 395.91, 714.49 394.21 C 714.20 392.50, 714.06 391.66, 713.59 390.45 C 713.13 389.25, 712.77 388.81, 712.16 388.17 C 711.55 387.54, 711.27 387.33, 710.53 387.27 C 709.79 387.21, 709.07 387.45, 708.47 387.88" style="stroke: black; fill: black;"/><path d="M 773.81,411.99 C 773.05 412.17, 772.74 412.52, 772.28 413.27 C 771.83 414.03, 771.63 414.58, 771.54 415.76 C 771.45 416.94, 771.54 417.75, 771.84 419.19 C 772.15 420.62, 772.48 421.40, 773.07 422.92 C 773.66 424.44, 773.97 425.25, 774.77 426.79 C 775.57 428.32, 776.04 429.14, 777.06 430.59 C 778.09 432.04, 778.66 432.76, 779.90 434.02 C 781.14 435.27, 781.83 435.89, 783.25 436.87 C 784.67 437.84, 785.46 438.27, 787.00 438.89 C 788.54 439.50, 789.36 439.72, 790.97 439.93 C 792.58 440.14, 793.43 440.16, 795.04 439.94 C 796.65 439.72, 797.50 439.49, 799.01 438.82 C 800.51 438.16, 801.27 437.66, 802.57 436.63 C 803.88 435.59, 804.48 434.93, 805.53 433.63 C 806.59 432.33, 807.08 431.56, 807.84 430.12 C 808.61 428.68, 808.86 427.85, 809.35 426.43 C 809.85 425.02, 810.07 424.33, 810.32 423.06 C 810.57 421.78, 810.89 421.03, 810.60 420.07 C 810.32 419.10, 809.76 418.56, 808.91 418.25 C 808.06 417.94, 807.17 417.99, 806.33 418.51 C 805.50 419.02, 805.08 419.58, 804.72 420.83 C 804.36 422.08, 804.42 422.94, 804.52 424.74 C 804.63 426.53, 804.92 427.64, 805.24 429.80 C 805.55 431.97, 805.76 433.16, 806.11 435.56 C 806.46 437.96, 806.64 439.22, 807.00 441.81 C 807.36 444.39, 807.56 445.80, 807.92 448.49 C 808.28 451.19, 808.49 452.59, 808.79 455.29 C 809.09 458.00, 809.24 459.39, 809.41 462.01 C 809.58 464.62, 809.67 465.97, 809.65 468.38 C 809.62 470.79, 809.57 471.96, 809.29 474.06 C 809.01 476.15, 808.82 477.15, 808.25 478.85 C 807.68 480.54, 807.33 481.28, 806.45 482.53 C 805.56 483.78, 805.02 484.27, 803.81 485.11 C 802.60 485.96, 801.91 486.28, 800.39 486.73 C 798.87 487.19, 798.04 487.32, 796.23 487.40 C 794.42 487.49, 793.40 487.42, 791.35 487.15 C 789.30 486.88, 788.14 486.65, 785.98 486.06 C 783.82 485.47, 782.67 485.08, 780.55 484.19 C 778.43 483.29, 777.32 482.74, 775.39 481.60 C 773.46 480.46, 772.47 479.79, 770.90 478.48 C 769.33 477.17, 768.59 476.45, 767.54 475.04 C 766.48 473.62, 766.07 472.90, 765.62 471.42 C 765.18 469.93, 765.13 469.18, 765.32 467.63 C 765.51 466.08, 765.77 465.28, 766.60 463.67 C 767.43 462.06, 768.01 461.21, 769.47 459.57 C 770.93 457.93, 771.87 457.10, 773.88 455.47 C 775.89 453.84, 777.05 452.92, 779.52 451.43 C 781.99 449.93, 783.42 449.17, 786.22 447.98 C 789.02 446.79, 790.58 446.28, 793.52 445.49 C 796.45 444.70, 798.29 444.64, 800.91 444.03 C 803.54 443.43, 804.77 443.11, 806.65 442.46 C 808.53 441.80, 809.63 441.48, 810.32 440.78 C 811.01 440.08, 810.96 439.48, 810.11 438.96 C 809.26 438.44, 808.12 438.30, 806.06 438.19 C 804.01 438.07, 802.62 437.96, 799.82 438.40 C 797.02 438.85, 795.17 439.47, 792.06 440.43 C 788.94 441.39, 787.28 441.95, 784.23 443.19 C 781.18 444.44, 779.60 445.15, 776.79 446.67 C 773.98 448.20, 772.54 448.99, 770.19 450.82 C 767.84 452.65, 766.76 453.72, 765.05 455.83 C 763.33 457.93, 762.60 459.09, 761.62 461.35 C 760.64 463.61, 760.34 464.84, 760.16 467.13 C 759.99 469.43, 760.13 470.64, 760.74 472.82 C 761.36 475.01, 761.92 476.09, 763.23 478.05 C 764.53 480.01, 765.43 480.95, 767.27 482.62 C 769.11 484.30, 770.23 485.07, 772.43 486.45 C 774.63 487.82, 775.86 488.45, 778.26 489.50 C 780.66 490.55, 781.94 491.02, 784.42 491.71 C 786.90 492.40, 788.21 492.68, 790.66 492.95 C 793.10 493.21, 794.35 493.26, 796.64 493.04 C 798.94 492.82, 800.09 492.60, 802.13 491.85 C 804.17 491.10, 805.17 490.56, 806.86 489.28 C 808.54 488.01, 809.31 487.21, 810.56 485.47 C 811.81 483.73, 812.30 482.72, 813.11 480.60 C 813.91 478.48, 814.17 477.29, 814.58 474.87 C 815.00 472.45, 815.08 471.14, 815.17 468.51 C 815.26 465.87, 815.19 464.45, 815.05 461.69 C 814.92 458.93, 814.78 457.49, 814.51 454.71 C 814.25 451.92, 814.05 450.49, 813.73 447.76 C 813.40 445.03, 813.19 443.63, 812.87 441.04 C 812.56 438.45, 812.39 437.20, 812.16 434.82 C 811.92 432.45, 811.82 431.27, 811.72 429.17 C 811.62 427.07, 811.76 426.00, 811.66 424.31 C 811.55 422.63, 811.59 421.88, 811.19 420.75 C 810.80 419.62, 810.48 419.17, 809.70 418.68 C 808.91 418.18, 808.11 418.10, 807.26 418.26 C 806.40 418.42, 805.91 418.76, 805.44 419.47 C 804.96 420.19, 805.15 420.82, 804.88 421.83 C 804.62 422.84, 804.52 423.41, 804.10 424.53 C 803.68 425.64, 803.39 426.28, 802.78 427.39 C 802.16 428.50, 801.80 429.09, 801.05 430.07 C 800.29 431.05, 799.86 431.54, 798.99 432.29 C 798.12 433.05, 797.65 433.37, 796.70 433.85 C 795.75 434.32, 795.25 434.48, 794.25 434.65 C 793.24 434.82, 792.71 434.84, 791.67 434.70 C 790.63 434.55, 790.10 434.40, 789.05 433.94 C 788.01 433.48, 787.45 433.15, 786.44 432.39 C 785.42 431.63, 784.90 431.15, 783.98 430.14 C 783.06 429.13, 782.62 428.52, 781.85 427.32 C 781.07 426.13, 780.68 425.45, 780.10 424.17 C 779.52 422.89, 779.29 422.19, 778.94 420.93 C 778.58 419.68, 778.53 419.01, 778.32 417.88 C 778.11 416.76, 778.12 416.18, 777.89 415.32 C 777.67 414.46, 777.54 414.18, 777.17 413.59 C 776.81 413.00, 776.74 412.68, 776.07 412.36 C 775.39 412.04, 774.57 411.80, 773.81 411.99" style="stroke: black; fill: black;"/><path d="M 910.07,420.70 C 910.51 419.97, 910.48 419.36, 910.24 418.47 C 909.99 417.59, 909.64 417.07, 908.86 416.26 C 908.07 415.46, 907.44 415.06, 906.32 414.46 C 905.20 413.85, 904.57 413.66, 903.26 413.24 C 901.94 412.83, 901.28 412.60, 899.75 412.38 C 898.23 412.16, 897.37 412.06, 895.64 412.12 C 893.90 412.19, 892.94 412.32, 891.07 412.73 C 889.19 413.14, 888.18 413.42, 886.24 414.16 C 884.30 414.91, 883.26 415.36, 881.37 416.45 C 879.47 417.54, 878.48 418.21, 876.79 419.62 C 875.10 421.03, 874.26 421.85, 872.90 423.49 C 871.54 425.13, 870.89 426.04, 869.98 427.84 C 869.07 429.63, 868.68 430.62, 868.35 432.48 C 868.02 434.34, 868.01 435.36, 868.33 437.14 C 868.64 438.93, 868.97 439.86, 869.92 441.41 C 870.88 442.96, 871.59 443.73, 873.11 444.90 C 874.63 446.07, 875.61 446.57, 877.53 447.25 C 879.45 447.94, 880.57 448.14, 882.71 448.32 C 884.85 448.51, 886.05 448.46, 888.24 448.18 C 890.42 447.89, 891.56 447.59, 893.64 446.90 C 895.72 446.21, 896.77 445.74, 898.63 444.71 C 900.49 443.67, 901.38 443.05, 902.93 441.73 C 904.48 440.42, 905.19 439.67, 906.37 438.13 C 907.54 436.60, 908.04 435.74, 908.82 434.06 C 909.59 432.39, 909.86 431.48, 910.26 429.76 C 910.65 428.04, 910.72 427.14, 910.80 425.46 C 910.88 423.78, 910.93 422.84, 910.65 421.36 C 910.37 419.88, 910.19 418.96, 909.41 418.08 C 908.63 417.19, 907.78 416.91, 906.74 416.94 C 905.71 416.97, 904.96 417.37, 904.23 418.24 C 903.49 419.10, 903.17 419.82, 903.06 421.27 C 902.94 422.72, 903.18 423.72, 903.65 425.49 C 904.12 427.26, 904.63 428.28, 905.40 430.13 C 906.17 431.98, 906.60 432.94, 907.50 434.74 C 908.40 436.54, 908.88 437.46, 909.90 439.14 C 910.92 440.82, 911.46 441.67, 912.62 443.13 C 913.77 444.60, 914.43 445.33, 915.69 446.45 C 916.96 447.56, 917.69 448.12, 918.94 448.70 C 920.18 449.28, 920.94 449.37, 921.93 449.35 C 922.91 449.34, 923.42 449.11, 923.87 448.64 C 924.32 448.16, 924.31 447.57, 924.18 446.99 C 924.05 446.41, 923.71 446.26, 923.20 445.72 C 922.69 445.18, 922.39 444.96, 921.62 444.31 C 920.86 443.66, 920.29 443.38, 919.37 442.47 C 918.44 441.56, 917.92 440.99, 917.00 439.76 C 916.08 438.52, 915.60 437.77, 914.77 436.29 C 913.93 434.80, 913.50 433.96, 912.83 432.32 C 912.17 430.67, 911.89 429.77, 911.43 428.06 C 910.98 426.35, 910.93 425.32, 910.58 423.77 C 910.22 422.22, 910.13 421.40, 909.65 420.31 C 909.16 419.23, 908.85 418.81, 908.15 418.35 C 907.45 417.88, 906.83 417.76, 906.15 417.99 C 905.46 418.22, 904.97 418.65, 904.72 419.50 C 904.46 420.34, 904.75 421.04, 904.86 422.21 C 904.97 423.38, 905.24 424.07, 905.26 425.36 C 905.29 426.64, 905.24 427.32, 904.98 428.61 C 904.72 429.91, 904.52 430.58, 903.96 431.83 C 903.39 433.08, 903.04 433.72, 902.15 434.86 C 901.25 436.01, 900.70 436.57, 899.47 437.55 C 898.24 438.54, 897.50 439.02, 895.99 439.80 C 894.47 440.58, 893.59 440.94, 891.90 441.46 C 890.20 441.98, 889.26 442.18, 887.52 442.39 C 885.78 442.59, 884.82 442.59, 883.18 442.47 C 881.55 442.34, 880.73 442.18, 879.36 441.77 C 877.98 441.36, 877.33 441.03, 876.30 440.40 C 875.27 439.76, 874.81 439.40, 874.20 438.58 C 873.59 437.77, 873.42 437.32, 873.26 436.30 C 873.10 435.29, 873.10 434.69, 873.39 433.51 C 873.68 432.33, 873.96 431.67, 874.71 430.40 C 875.46 429.13, 876.01 428.42, 877.15 427.16 C 878.29 425.90, 879.00 425.22, 880.42 424.10 C 881.84 422.98, 882.68 422.44, 884.27 421.56 C 885.85 420.68, 886.74 420.30, 888.35 419.69 C 889.96 419.09, 890.80 418.86, 892.31 418.54 C 893.83 418.22, 894.58 418.16, 895.92 418.09 C 897.26 418.01, 897.91 418.06, 899.03 418.16 C 900.15 418.27, 900.68 418.33, 901.52 418.61 C 902.35 418.89, 902.59 419.12, 903.22 419.57 C 903.84 420.02, 904.04 420.42, 904.63 420.88 C 905.21 421.33, 905.45 421.58, 906.14 421.83 C 906.83 422.08, 907.27 422.34, 908.06 422.11 C 908.84 421.89, 909.64 421.43, 910.07 420.70" style="stroke: black; fill: black;"/><path d="M 926.59,417.99 C 925.95 418.35, 925.81 418.64, 925.49 419.42 C 925.16 420.21, 924.99 420.71, 924.98 421.90 C 924.96 423.09, 925.14 423.92, 925.43 425.39 C 925.72 426.86, 926.05 427.68, 926.42 429.25 C 926.79 430.82, 926.97 431.67, 927.28 433.25 C 927.59 434.83, 927.75 435.68, 927.98 437.16 C 928.21 438.64, 928.16 439.43, 928.43 440.64 C 928.70 441.84, 928.78 442.54, 929.33 443.18 C 929.89 443.82, 930.46 443.90, 931.20 443.84 C 931.94 443.77, 932.46 443.51, 933.03 442.85 C 933.60 442.19, 933.96 441.67, 934.06 440.55 C 934.15 439.42, 933.80 438.58, 933.49 437.22 C 933.19 435.86, 932.78 435.18, 932.53 433.77 C 932.28 432.35, 932.23 431.58, 932.24 430.17 C 932.24 428.75, 932.30 428.03, 932.56 426.69 C 932.82 425.34, 932.99 424.66, 933.54 423.42 C 934.09 422.18, 934.45 421.56, 935.31 420.47 C 936.16 419.39, 936.68 418.87, 937.82 417.99 C 938.96 417.11, 939.63 416.68, 941.00 416.08 C 942.37 415.48, 943.16 415.23, 944.67 414.97 C 946.18 414.71, 947.01 414.66, 948.54 414.77 C 950.07 414.88, 950.89 415.01, 952.32 415.52 C 953.76 416.02, 954.46 416.39, 955.72 417.30 C 956.98 418.20, 957.59 418.76, 958.63 420.02 C 959.68 421.28, 960.13 422.02, 960.93 423.59 C 961.73 425.16, 962.05 426.07, 962.64 427.86 C 963.22 429.65, 963.43 430.64, 963.86 432.53 C 964.29 434.41, 964.43 435.43, 964.80 437.30 C 965.17 439.17, 965.26 440.19, 965.72 441.86 C 966.19 443.53, 966.51 444.49, 967.14 445.66 C 967.77 446.83, 968.23 447.16, 968.88 447.72 C 969.52 448.28, 969.83 448.43, 970.37 448.45 C 970.91 448.47, 971.27 448.23, 971.59 447.82 C 971.91 447.41, 971.89 447.15, 971.97 446.39 C 972.05 445.63, 972.15 445.19, 971.98 444.01 C 971.81 442.84, 971.46 442.07, 971.13 440.52 C 970.80 438.97, 970.66 438.09, 970.32 436.24 C 969.99 434.39, 969.90 433.31, 969.45 431.27 C 969.00 429.23, 968.78 428.10, 968.08 426.04 C 967.37 423.97, 966.97 422.87, 965.93 420.95 C 964.89 419.03, 964.28 418.06, 962.87 416.43 C 961.46 414.80, 960.64 414.02, 958.90 412.80 C 957.16 411.58, 956.16 411.05, 954.18 410.33 C 952.20 409.61, 951.09 409.39, 949.00 409.20 C 946.91 409.02, 945.78 409.06, 943.73 409.40 C 941.67 409.75, 940.59 410.08, 938.71 410.91 C 936.84 411.74, 935.93 412.33, 934.37 413.56 C 932.80 414.79, 932.09 415.53, 930.91 417.05 C 929.74 418.57, 929.24 419.47, 928.49 421.17 C 927.73 422.86, 927.51 423.79, 927.12 425.53 C 926.72 427.28, 926.66 428.15, 926.52 429.89 C 926.37 431.63, 926.39 432.56, 926.38 434.24 C 926.36 435.92, 926.31 436.77, 926.45 438.31 C 926.59 439.84, 926.54 440.78, 927.08 441.92 C 927.62 443.07, 928.23 443.54, 929.15 444.03 C 930.07 444.52, 930.78 444.57, 931.68 444.36 C 932.58 444.15, 933.15 443.84, 933.63 442.98 C 934.12 442.12, 934.09 441.38, 934.10 440.05 C 934.11 438.73, 933.88 437.91, 933.68 436.36 C 933.49 434.81, 933.34 433.93, 933.12 432.29 C 932.91 430.65, 932.80 429.77, 932.61 428.15 C 932.41 426.54, 932.37 425.66, 932.14 424.20 C 931.92 422.75, 931.84 421.98, 931.47 420.88 C 931.10 419.77, 930.82 419.33, 930.28 418.67 C 929.73 418.02, 929.46 417.75, 928.73 417.61 C 927.99 417.47, 927.24 417.63, 926.59 417.99" style="stroke: black; fill: black;"/><path d="M 1006.78,425.99 C 1007.28 425.24, 1007.30 424.43, 1007.03 423.34 C 1006.76 422.25, 1006.36 421.58, 1005.44 420.55 C 1004.52 419.51, 1003.78 418.90, 1002.43 418.16 C 1001.08 417.41, 1000.26 417.20, 998.69 416.82 C 997.12 416.44, 996.30 416.30, 994.59 416.25 C 992.88 416.20, 991.93 416.23, 990.13 416.58 C 988.34 416.93, 987.37 417.22, 985.60 417.99 C 983.83 418.75, 982.92 419.25, 981.30 420.41 C 979.69 421.57, 978.87 422.27, 977.53 423.77 C 976.20 425.28, 975.55 426.17, 974.63 427.94 C 973.71 429.71, 973.34 430.72, 972.94 432.61 C 972.54 434.50, 972.45 435.52, 972.62 437.38 C 972.80 439.24, 973.04 440.22, 973.81 441.92 C 974.58 443.61, 975.15 444.48, 976.47 445.87 C 977.79 447.25, 978.65 447.89, 980.41 448.84 C 982.17 449.79, 983.23 450.15, 985.26 450.60 C 987.29 451.06, 988.42 451.15, 990.57 451.11 C 992.73 451.07, 993.91 450.92, 996.04 450.40 C 998.17 449.87, 999.25 449.45, 1001.23 448.48 C 1003.21 447.52, 1004.20 446.93, 1005.94 445.57 C 1007.68 444.22, 1008.51 443.41, 1009.92 441.70 C 1011.33 439.99, 1011.95 439.00, 1012.97 437.02 C 1013.99 435.04, 1014.40 433.95, 1015.04 431.78 C 1015.67 429.61, 1015.88 428.44, 1016.15 426.17 C 1016.43 423.90, 1016.44 422.72, 1016.41 420.43 C 1016.39 418.15, 1016.26 416.96, 1016.02 414.74 C 1015.77 412.51, 1015.57 411.40, 1015.19 409.31 C 1014.80 407.22, 1014.55 406.17, 1014.09 404.28 C 1013.62 402.39, 1013.36 401.44, 1012.88 399.85 C 1012.40 398.27, 1012.24 397.49, 1011.68 396.35 C 1011.13 395.22, 1010.91 394.67, 1010.12 394.18 C 1009.34 393.69, 1008.65 393.62, 1007.75 393.91 C 1006.86 394.19, 1006.18 394.61, 1005.66 395.61 C 1005.14 396.60, 1005.08 397.33, 1005.15 398.89 C 1005.22 400.45, 1005.59 401.40, 1006.03 403.41 C 1006.47 405.42, 1006.82 406.58, 1007.37 408.93 C 1007.92 411.27, 1008.19 412.57, 1008.76 415.14 C 1009.33 417.70, 1009.59 419.06, 1010.20 421.74 C 1010.82 424.41, 1011.14 425.84, 1011.83 428.52 C 1012.51 431.20, 1012.84 432.58, 1013.61 435.15 C 1014.38 437.72, 1014.77 439.01, 1015.66 441.39 C 1016.55 443.76, 1017.04 444.92, 1018.05 447.01 C 1019.06 449.11, 1019.58 450.12, 1020.72 451.86 C 1021.86 453.60, 1022.56 454.45, 1023.74 455.71 C 1024.91 456.96, 1025.56 457.48, 1026.59 458.12 C 1027.62 458.77, 1028.12 458.80, 1028.90 458.92 C 1029.67 459.03, 1030.02 458.99, 1030.44 458.69 C 1030.87 458.39, 1030.98 457.89, 1031.00 457.42 C 1031.03 456.94, 1030.82 456.87, 1030.57 456.32 C 1030.31 455.77, 1030.30 455.50, 1029.73 454.68 C 1029.16 453.86, 1028.62 453.38, 1027.71 452.24 C 1026.80 451.10, 1026.14 450.48, 1025.17 448.97 C 1024.21 447.47, 1023.76 446.62, 1022.89 444.72 C 1022.02 442.83, 1021.59 441.74, 1020.81 439.52 C 1020.04 437.29, 1019.68 436.08, 1019.01 433.60 C 1018.33 431.13, 1018.03 429.78, 1017.41 427.15 C 1016.80 424.53, 1016.47 423.13, 1015.93 420.49 C 1015.38 417.85, 1015.14 416.50, 1014.67 413.95 C 1014.21 411.39, 1013.99 410.07, 1013.61 407.70 C 1013.23 405.34, 1013.10 404.13, 1012.77 402.12 C 1012.45 400.12, 1012.46 399.10, 1012.00 397.67 C 1011.54 396.24, 1011.21 395.62, 1010.47 394.96 C 1009.73 394.31, 1009.02 394.28, 1008.29 394.40 C 1007.55 394.52, 1007.09 394.85, 1006.79 395.55 C 1006.50 396.25, 1006.64 396.75, 1006.81 397.90 C 1006.98 399.05, 1007.28 399.75, 1007.65 401.28 C 1008.03 402.81, 1008.28 403.74, 1008.68 405.54 C 1009.08 407.35, 1009.33 408.34, 1009.67 410.30 C 1010.02 412.26, 1010.18 413.30, 1010.39 415.34 C 1010.60 417.38, 1010.69 418.47, 1010.72 420.51 C 1010.75 422.54, 1010.75 423.57, 1010.54 425.52 C 1010.32 427.47, 1010.15 428.44, 1009.65 430.24 C 1009.15 432.04, 1008.84 432.91, 1008.04 434.51 C 1007.24 436.10, 1006.75 436.86, 1005.65 438.19 C 1004.56 439.53, 1003.92 440.15, 1002.55 441.19 C 1001.18 442.23, 1000.37 442.68, 998.80 443.41 C 997.24 444.15, 996.38 444.46, 994.71 444.85 C 993.05 445.24, 992.12 445.31, 990.47 445.34 C 988.82 445.37, 987.96 445.30, 986.47 444.99 C 984.97 444.69, 984.23 444.41, 982.99 443.82 C 981.76 443.23, 981.19 442.85, 980.30 442.03 C 979.42 441.21, 979.05 440.72, 978.56 439.71 C 978.07 438.70, 977.92 438.14, 977.85 436.97 C 977.79 435.80, 977.90 435.14, 978.24 433.86 C 978.58 432.58, 978.87 431.85, 979.57 430.59 C 980.27 429.33, 980.74 428.67, 981.75 427.57 C 982.76 426.47, 983.39 425.94, 984.61 425.09 C 985.84 424.24, 986.54 423.86, 987.87 423.31 C 989.19 422.76, 989.92 422.58, 991.24 422.33 C 992.57 422.07, 993.27 422.04, 994.49 422.04 C 995.71 422.04, 996.36 422.10, 997.35 422.34 C 998.33 422.58, 998.68 422.75, 999.41 423.24 C 1000.13 423.73, 1000.36 424.21, 1000.99 424.79 C 1001.61 425.38, 1001.83 425.71, 1002.54 426.17 C 1003.24 426.63, 1003.66 427.12, 1004.51 427.08 C 1005.36 427.04, 1006.27 426.73, 1006.78 425.99" style="stroke: black; fill: black;"/><path d="M 1132.70,404.30 C 1133.62 404.03, 1134.19 403.35, 1134.91 402.19 C 1135.64 401.04, 1136.02 400.16, 1136.35 398.53 C 1136.67 396.90, 1136.70 395.79, 1136.53 394.05 C 1136.37 392.31, 1136.07 391.40, 1135.50 389.82 C 1134.93 388.23, 1134.55 387.48, 1133.68 386.12 C 1132.81 384.76, 1132.29 384.12, 1131.16 383.02 C 1130.03 381.93, 1129.37 381.42, 1128.02 380.64 C 1126.66 379.87, 1125.89 379.55, 1124.38 379.15 C 1122.86 378.75, 1122.04 378.61, 1120.44 378.64 C 1118.84 378.68, 1117.96 378.78, 1116.37 379.31 C 1114.78 379.85, 1113.94 380.27, 1112.49 381.32 C 1111.05 382.38, 1110.37 383.05, 1109.16 384.60 C 1107.96 386.14, 1107.40 387.05, 1106.48 389.05 C 1105.56 391.05, 1105.17 392.18, 1104.57 394.59 C 1103.97 397.00, 1103.72 398.32, 1103.47 401.10 C 1103.21 403.89, 1103.19 405.42, 1103.28 408.50 C 1103.38 411.58, 1103.57 413.22, 1103.93 416.49 C 1104.29 419.76, 1104.55 421.46, 1105.08 424.85 C 1105.61 428.25, 1105.94 430.02, 1106.59 433.46 C 1107.23 436.90, 1107.61 438.66, 1108.29 442.07 C 1108.97 445.47, 1109.35 447.19, 1109.99 450.49 C 1110.63 453.80, 1110.96 455.48, 1111.49 458.60 C 1112.01 461.73, 1112.18 463.29, 1112.62 466.10 C 1113.07 468.90, 1113.32 470.27, 1113.70 472.63 C 1114.09 474.99, 1114.18 476.08, 1114.55 477.89 C 1114.92 479.71, 1115.11 480.53, 1115.57 481.70 C 1116.03 482.88, 1116.28 483.39, 1116.85 483.77 C 1117.43 484.16, 1117.94 484.11, 1118.43 483.63 C 1118.92 483.14, 1119.09 482.61, 1119.31 481.34 C 1119.54 480.07, 1119.64 479.18, 1119.56 477.28 C 1119.48 475.38, 1119.25 474.26, 1118.92 471.85 C 1118.58 469.43, 1118.41 468.03, 1117.88 465.19 C 1117.36 462.36, 1116.96 460.81, 1116.29 457.69 C 1115.62 454.56, 1115.25 452.87, 1114.55 449.57 C 1113.85 446.26, 1113.47 444.55, 1112.79 441.16 C 1112.11 437.78, 1111.74 436.04, 1111.15 432.64 C 1110.56 429.24, 1110.27 427.49, 1109.84 424.18 C 1109.42 420.86, 1109.23 419.20, 1109.04 416.06 C 1108.85 412.92, 1108.83 411.35, 1108.90 408.48 C 1108.98 405.62, 1109.12 404.21, 1109.40 401.71 C 1109.69 399.22, 1109.84 398.05, 1110.32 395.99 C 1110.81 393.93, 1111.14 393.01, 1111.82 391.42 C 1112.50 389.82, 1112.91 389.14, 1113.71 388.00 C 1114.51 386.86, 1114.95 386.43, 1115.83 385.72 C 1116.71 385.01, 1117.19 384.79, 1118.13 384.46 C 1119.07 384.13, 1119.57 384.07, 1120.53 384.06 C 1121.50 384.05, 1122.01 384.14, 1122.96 384.41 C 1123.92 384.67, 1124.42 384.88, 1125.31 385.39 C 1126.20 385.90, 1126.64 386.23, 1127.41 386.95 C 1128.19 387.67, 1128.59 388.10, 1129.17 389.00 C 1129.74 389.90, 1130.03 390.40, 1130.30 391.47 C 1130.57 392.53, 1130.54 393.12, 1130.51 394.32 C 1130.47 395.53, 1130.28 396.21, 1130.12 397.48 C 1129.95 398.75, 1129.64 399.46, 1129.68 400.68 C 1129.72 401.89, 1129.72 402.84, 1130.33 403.56 C 1130.93 404.29, 1131.79 404.58, 1132.70 404.30" style="stroke: black; fill: black;"/><path d="M 1092.14,439.02 C 1092.70 439.50, 1092.97 439.41, 1093.86 439.51 C 1094.75 439.61, 1095.20 439.65, 1096.58 439.51 C 1097.96 439.37, 1098.80 439.12, 1100.76 438.82 C 1102.71 438.53, 1103.91 438.37, 1106.34 438.05 C 1108.77 437.72, 1110.19 437.54, 1112.91 437.18 C 1115.63 436.83, 1117.10 436.60, 1119.95 436.26 C 1122.79 435.93, 1124.31 435.80, 1127.12 435.50 C 1129.94 435.19, 1131.37 435.04, 1134.01 434.73 C 1136.65 434.41, 1137.97 434.25, 1140.32 433.92 C 1142.67 433.58, 1143.81 433.45, 1145.76 433.05 C 1147.70 432.66, 1148.68 432.48, 1150.04 431.94 C 1151.41 431.41, 1151.90 431.01, 1152.59 430.38 C 1153.29 429.75, 1153.47 429.33, 1153.52 428.77 C 1153.56 428.21, 1153.23 427.88, 1152.81 427.60 C 1152.40 427.32, 1152.21 427.45, 1151.43 427.38 C 1150.66 427.31, 1150.26 427.16, 1148.95 427.26 C 1147.63 427.35, 1146.73 427.59, 1144.87 427.85 C 1143.00 428.10, 1141.91 428.28, 1139.62 428.55 C 1137.33 428.81, 1136.03 428.92, 1133.41 429.17 C 1130.80 429.43, 1129.36 429.55, 1126.55 429.82 C 1123.73 430.08, 1122.21 430.24, 1119.35 430.50 C 1116.49 430.75, 1115.00 430.86, 1112.25 431.09 C 1109.51 431.33, 1108.13 431.45, 1105.62 431.68 C 1103.12 431.90, 1101.85 431.89, 1099.73 432.23 C 1097.62 432.56, 1096.58 432.78, 1095.06 433.36 C 1093.54 433.93, 1092.93 434.35, 1092.14 435.11 C 1091.35 435.86, 1091.09 436.35, 1091.09 437.13 C 1091.09 437.91, 1091.59 438.54, 1092.14 439.02" style="stroke: black; fill: black;"/><path d="M 1165.71,422.87 C 1165.70 422.05, 1165.40 421.58, 1164.68 420.93 C 1163.96 420.28, 1163.36 419.93, 1162.09 419.63 C 1160.82 419.33, 1159.90 419.27, 1158.34 419.41 C 1156.77 419.56, 1155.91 419.83, 1154.26 420.36 C 1152.61 420.90, 1151.74 421.24, 1150.10 422.09 C 1148.45 422.93, 1147.56 423.43, 1146.02 424.58 C 1144.48 425.73, 1143.68 426.39, 1142.39 427.83 C 1141.10 429.27, 1140.44 430.10, 1139.56 431.77 C 1138.69 433.45, 1138.30 434.40, 1138.00 436.22 C 1137.69 438.05, 1137.64 439.08, 1138.03 440.90 C 1138.41 442.73, 1138.81 443.74, 1139.91 445.36 C 1141.00 446.97, 1141.79 447.75, 1143.51 448.99 C 1145.24 450.22, 1146.31 450.77, 1148.52 451.55 C 1150.72 452.33, 1152.04 452.61, 1154.54 452.91 C 1157.05 453.20, 1158.40 453.18, 1161.02 453.02 C 1163.64 452.86, 1165.05 452.68, 1167.63 452.12 C 1170.22 451.55, 1171.59 451.13, 1173.93 450.19 C 1176.27 449.26, 1177.41 448.67, 1179.32 447.42 C 1181.24 446.17, 1182.14 445.47, 1183.50 443.95 C 1184.87 442.43, 1185.44 441.55, 1186.14 439.83 C 1186.85 438.11, 1187.04 437.14, 1187.03 435.36 C 1187.03 433.57, 1186.80 432.58, 1186.11 430.90 C 1185.42 429.22, 1184.82 428.36, 1183.60 426.94 C 1182.38 425.52, 1181.56 424.89, 1180.01 423.80 C 1178.47 422.71, 1177.53 422.24, 1175.86 421.51 C 1174.18 420.79, 1173.22 420.41, 1171.65 420.17 C 1170.09 419.93, 1169.18 420.05, 1168.03 420.33 C 1166.87 420.60, 1166.31 420.94, 1165.88 421.55 C 1165.45 422.16, 1165.52 422.76, 1165.87 423.37 C 1166.23 423.98, 1166.77 424.16, 1167.65 424.61 C 1168.53 425.06, 1169.12 425.19, 1170.28 425.64 C 1171.43 426.09, 1172.17 426.25, 1173.45 426.85 C 1174.73 427.46, 1175.48 427.86, 1176.67 428.66 C 1177.85 429.46, 1178.45 429.94, 1179.38 430.84 C 1180.31 431.75, 1180.76 432.25, 1181.32 433.18 C 1181.88 434.12, 1182.11 434.57, 1182.19 435.51 C 1182.27 436.46, 1182.19 436.93, 1181.72 437.92 C 1181.26 438.91, 1180.90 439.48, 1179.86 440.46 C 1178.83 441.45, 1178.13 441.96, 1176.54 442.85 C 1174.95 443.74, 1173.95 444.18, 1171.92 444.89 C 1169.90 445.60, 1168.68 445.95, 1166.43 446.40 C 1164.19 446.85, 1162.92 447.02, 1160.69 447.14 C 1158.45 447.25, 1157.30 447.22, 1155.24 446.98 C 1153.19 446.73, 1152.13 446.45, 1150.41 445.92 C 1148.69 445.38, 1147.88 445.03, 1146.64 444.29 C 1145.40 443.56, 1144.93 443.13, 1144.22 442.24 C 1143.50 441.35, 1143.29 440.84, 1143.07 439.83 C 1142.85 438.82, 1142.87 438.28, 1143.11 437.20 C 1143.36 436.13, 1143.64 435.55, 1144.32 434.45 C 1145.00 433.36, 1145.50 432.76, 1146.53 431.74 C 1147.56 430.72, 1148.20 430.22, 1149.45 429.36 C 1150.70 428.51, 1151.46 428.12, 1152.78 427.48 C 1154.11 426.84, 1154.85 426.54, 1156.07 426.18 C 1157.29 425.82, 1157.86 425.77, 1158.88 425.69 C 1159.90 425.61, 1160.35 425.79, 1161.18 425.79 C 1162.01 425.80, 1162.32 425.87, 1163.03 425.72 C 1163.74 425.57, 1164.20 425.60, 1164.74 425.03 C 1165.27 424.45, 1165.73 423.69, 1165.71 422.87" style="stroke: black; fill: black;"/><path d="M 1195.63,427.70 C 1194.93 428.09, 1194.77 428.54, 1194.45 429.39 C 1194.13 430.23, 1194.03 430.77, 1194.03 431.94 C 1194.03 433.10, 1194.20 433.87, 1194.45 435.21 C 1194.69 436.54, 1194.95 437.25, 1195.25 438.60 C 1195.55 439.96, 1195.71 440.67, 1195.96 441.99 C 1196.20 443.31, 1196.13 444.09, 1196.48 445.21 C 1196.82 446.32, 1196.99 446.99, 1197.66 447.56 C 1198.33 448.13, 1199.04 448.24, 1199.85 448.04 C 1200.65 447.84, 1201.25 447.41, 1201.70 446.57 C 1202.14 445.74, 1202.24 445.07, 1202.07 443.88 C 1201.90 442.70, 1201.46 441.97, 1200.87 440.65 C 1200.28 439.33, 1199.74 438.60, 1199.13 437.28 C 1198.51 435.95, 1198.20 435.31, 1197.78 434.04 C 1197.36 432.77, 1197.21 432.09, 1197.02 430.92 C 1196.83 429.74, 1196.76 429.18, 1196.82 428.16 C 1196.88 427.15, 1196.97 426.71, 1197.33 425.85 C 1197.70 424.99, 1197.95 424.58, 1198.65 423.87 C 1199.35 423.16, 1199.72 422.84, 1200.83 422.28 C 1201.94 421.73, 1202.66 421.49, 1204.19 421.08 C 1205.73 420.67, 1206.65 420.48, 1208.51 420.25 C 1210.38 420.02, 1211.43 419.93, 1213.52 419.94 C 1215.60 419.96, 1216.76 420.09, 1218.94 420.34 C 1221.11 420.59, 1222.38 420.97, 1224.40 421.20 C 1226.41 421.42, 1227.45 421.52, 1229.02 421.47 C 1230.59 421.42, 1231.51 421.44, 1232.25 420.97 C 1232.99 420.50, 1233.16 419.91, 1232.72 419.13 C 1232.28 418.36, 1231.48 417.85, 1230.03 417.10 C 1228.59 416.36, 1227.58 415.97, 1225.50 415.41 C 1223.42 414.86, 1222.03 414.62, 1219.64 414.33 C 1217.25 414.05, 1215.93 413.99, 1213.55 413.98 C 1211.18 413.97, 1209.98 414.02, 1207.77 414.30 C 1205.56 414.58, 1204.46 414.76, 1202.51 415.38 C 1200.56 416.01, 1199.58 416.43, 1198.02 417.41 C 1196.45 418.40, 1195.80 419.03, 1194.70 420.30 C 1193.60 421.58, 1193.15 422.33, 1192.53 423.80 C 1191.90 425.28, 1191.75 426.11, 1191.57 427.66 C 1191.39 429.22, 1191.47 430.02, 1191.62 431.59 C 1191.77 433.16, 1191.99 433.96, 1192.32 435.50 C 1192.65 437.05, 1192.90 437.78, 1193.27 439.31 C 1193.65 440.85, 1193.75 441.77, 1194.21 443.18 C 1194.66 444.60, 1194.86 445.39, 1195.53 446.39 C 1196.20 447.38, 1196.64 447.78, 1197.55 448.18 C 1198.47 448.57, 1199.22 448.63, 1200.12 448.35 C 1201.02 448.08, 1201.61 447.63, 1202.04 446.80 C 1202.47 445.96, 1202.33 445.34, 1202.27 444.18 C 1202.20 443.02, 1201.94 442.31, 1201.73 441.00 C 1201.52 439.69, 1201.38 438.96, 1201.23 437.61 C 1201.08 436.25, 1201.14 435.53, 1200.98 434.22 C 1200.83 432.92, 1200.78 432.15, 1200.47 431.06 C 1200.17 429.98, 1199.97 429.52, 1199.46 428.79 C 1198.96 428.07, 1198.71 427.66, 1197.94 427.45 C 1197.18 427.23, 1196.33 427.31, 1195.63 427.70" style="stroke: black; fill: black;"/><path d="M 1306.63,402.01 C 1305.97 402.47, 1305.81 402.98, 1305.53 404.05 C 1305.25 405.12, 1305.16 405.79, 1305.23 407.37 C 1305.30 408.96, 1305.54 410.02, 1305.87 411.97 C 1306.20 413.92, 1306.50 414.95, 1306.89 417.14 C 1307.28 419.32, 1307.47 420.52, 1307.82 422.90 C 1308.17 425.29, 1308.31 426.57, 1308.66 429.07 C 1309.00 431.57, 1309.18 432.89, 1309.52 435.40 C 1309.87 437.90, 1310.05 439.19, 1310.38 441.59 C 1310.71 444.00, 1310.87 445.24, 1311.17 447.42 C 1311.47 449.60, 1311.52 450.71, 1311.87 452.51 C 1312.23 454.31, 1312.44 455.17, 1312.94 456.41 C 1313.43 457.64, 1313.72 458.26, 1314.35 458.68 C 1314.98 459.10, 1315.55 459.05, 1316.09 458.51 C 1316.62 457.97, 1316.79 457.30, 1317.02 455.98 C 1317.24 454.66, 1317.29 453.74, 1317.23 451.89 C 1317.16 450.04, 1316.93 448.94, 1316.68 446.73 C 1316.44 444.53, 1316.28 443.29, 1315.99 440.87 C 1315.70 438.46, 1315.53 437.17, 1315.22 434.66 C 1314.92 432.15, 1314.77 430.83, 1314.46 428.32 C 1314.16 425.81, 1314.00 424.52, 1313.70 422.11 C 1313.41 419.69, 1313.24 418.48, 1312.98 416.25 C 1312.73 414.02, 1312.70 412.95, 1312.44 410.97 C 1312.17 409.00, 1312.09 407.90, 1311.67 406.37 C 1311.26 404.85, 1310.93 404.28, 1310.36 403.35 C 1309.79 402.43, 1309.59 402.02, 1308.84 401.75 C 1308.09 401.48, 1307.29 401.55, 1306.63 402.01" style="stroke: black; fill: black;"/><path d="M 1289.90,404.43 C 1290.75 404.22, 1291.07 403.53, 1291.76 402.72 C 1292.45 401.90, 1292.59 401.37, 1293.36 400.37 C 1294.13 399.38, 1294.44 398.72, 1295.62 397.73 C 1296.79 396.75, 1297.52 396.28, 1299.25 395.46 C 1300.98 394.63, 1302.06 394.23, 1304.26 393.62 C 1306.46 393.01, 1307.74 392.72, 1310.25 392.41 C 1312.76 392.10, 1314.17 391.99, 1316.81 392.07 C 1319.45 392.15, 1320.88 392.31, 1323.44 392.81 C 1326.00 393.32, 1327.35 393.69, 1329.62 394.58 C 1331.90 395.47, 1333.02 396.06, 1334.82 397.28 C 1336.62 398.50, 1337.43 399.24, 1338.64 400.69 C 1339.85 402.14, 1340.30 402.94, 1340.87 404.52 C 1341.44 406.11, 1341.55 406.96, 1341.48 408.63 C 1341.41 410.29, 1341.21 411.16, 1340.53 412.84 C 1339.85 414.53, 1339.34 415.40, 1338.10 417.03 C 1336.86 418.67, 1336.04 419.53, 1334.33 421.03 C 1332.62 422.53, 1331.57 423.26, 1329.55 424.52 C 1327.53 425.78, 1326.37 426.37, 1324.23 427.33 C 1322.09 428.29, 1320.91 428.68, 1318.87 429.31 C 1316.82 429.94, 1315.75 430.08, 1314.00 430.48 C 1312.25 430.87, 1311.47 430.95, 1310.13 431.29 C 1308.79 431.63, 1307.91 431.61, 1307.30 432.17 C 1306.70 432.74, 1306.54 433.44, 1307.11 434.12 C 1307.68 434.81, 1308.61 435.26, 1310.15 435.59 C 1311.69 435.91, 1312.75 435.94, 1314.81 435.75 C 1316.86 435.57, 1318.07 435.30, 1320.41 434.66 C 1322.75 434.03, 1324.07 433.61, 1326.51 432.57 C 1328.95 431.54, 1330.28 430.91, 1332.62 429.48 C 1334.95 428.04, 1336.19 427.21, 1338.21 425.39 C 1340.23 423.57, 1341.23 422.51, 1342.72 420.38 C 1344.21 418.24, 1344.86 417.06, 1345.65 414.72 C 1346.45 412.39, 1346.69 411.10, 1346.70 408.72 C 1346.70 406.33, 1346.47 405.06, 1345.67 402.81 C 1344.86 400.55, 1344.22 399.43, 1342.67 397.44 C 1341.12 395.46, 1340.11 394.49, 1337.92 392.89 C 1335.74 391.29, 1334.40 390.56, 1331.73 389.43 C 1329.07 388.30, 1327.53 387.86, 1324.60 387.22 C 1321.66 386.59, 1320.06 386.41, 1317.05 386.26 C 1314.04 386.11, 1312.44 386.16, 1309.56 386.47 C 1306.69 386.79, 1305.24 387.13, 1302.66 387.85 C 1300.09 388.56, 1298.88 389.01, 1296.69 390.05 C 1294.50 391.08, 1293.38 391.63, 1291.70 393.02 C 1290.02 394.40, 1289.24 395.41, 1288.30 396.98 C 1287.35 398.55, 1287.11 399.50, 1286.96 400.86 C 1286.81 402.22, 1286.96 403.08, 1287.55 403.79 C 1288.14 404.51, 1289.06 404.65, 1289.90 404.43" style="stroke: black; fill: black;"/><path d="M 1351.05,447.82 C 1351.67 448.39, 1352.26 448.41, 1353.52 448.50 C 1354.78 448.60, 1355.58 448.60, 1357.33 448.27 C 1359.08 447.94, 1360.25 447.56, 1362.28 446.85 C 1364.30 446.14, 1365.39 445.61, 1367.43 444.72 C 1369.48 443.83, 1370.57 443.35, 1372.50 442.41 C 1374.42 441.46, 1375.40 440.99, 1377.07 439.99 C 1378.73 438.98, 1379.55 438.49, 1380.82 437.39 C 1382.10 436.29, 1382.68 435.73, 1383.44 434.50 C 1384.20 433.26, 1384.50 432.57, 1384.61 431.21 C 1384.72 429.85, 1384.63 429.00, 1384.00 427.72 C 1383.38 426.44, 1382.78 425.73, 1381.47 424.81 C 1380.15 423.89, 1379.27 423.56, 1377.43 423.11 C 1375.60 422.65, 1374.51 422.56, 1372.29 422.55 C 1370.07 422.53, 1368.80 422.63, 1366.33 423.02 C 1363.86 423.41, 1362.48 423.72, 1359.94 424.49 C 1357.41 425.25, 1356.04 425.75, 1353.64 426.84 C 1351.24 427.93, 1350.01 428.57, 1347.93 429.93 C 1345.86 431.29, 1344.85 432.03, 1343.28 433.63 C 1341.71 435.23, 1341.00 436.12, 1340.09 437.93 C 1339.17 439.74, 1338.84 440.75, 1338.71 442.68 C 1338.57 444.62, 1338.69 445.71, 1339.42 447.62 C 1340.15 449.52, 1340.77 450.53, 1342.35 452.20 C 1343.92 453.88, 1344.98 454.67, 1347.29 455.99 C 1349.60 457.30, 1350.99 457.90, 1353.90 458.75 C 1356.82 459.61, 1358.52 459.82, 1361.86 460.28 C 1365.19 460.74, 1367.03 460.89, 1370.59 461.06 C 1374.15 461.23, 1376.07 461.22, 1379.67 461.14 C 1383.26 461.06, 1385.14 460.95, 1388.58 460.66 C 1392.01 460.38, 1393.75 460.22, 1396.85 459.71 C 1399.95 459.19, 1401.47 458.88, 1404.06 458.10 C 1406.66 457.31, 1407.86 456.81, 1409.82 455.79 C 1411.77 454.76, 1412.67 454.06, 1413.83 452.97 C 1415.00 451.88, 1415.26 451.26, 1415.65 450.33 C 1416.05 449.39, 1416.04 448.85, 1415.81 448.30 C 1415.58 447.75, 1415.04 447.60, 1414.52 447.59 C 1414.00 447.58, 1413.89 447.91, 1413.20 448.25 C 1412.52 448.58, 1412.22 448.67, 1411.10 449.27 C 1409.98 449.88, 1409.32 450.49, 1407.61 451.26 C 1405.90 452.02, 1404.89 452.38, 1402.56 453.08 C 1400.22 453.77, 1398.83 454.16, 1395.94 454.74 C 1393.06 455.31, 1391.41 455.61, 1388.13 455.96 C 1384.86 456.31, 1383.02 456.43, 1379.58 456.49 C 1376.13 456.54, 1374.27 456.52, 1370.90 456.25 C 1367.54 455.97, 1365.78 455.74, 1362.75 455.10 C 1359.71 454.47, 1358.24 453.93, 1355.72 453.06 C 1353.20 452.19, 1352.04 451.73, 1350.14 450.75 C 1348.25 449.77, 1347.47 449.21, 1346.25 448.18 C 1345.02 447.14, 1344.60 446.62, 1344.04 445.59 C 1343.48 444.55, 1343.36 444.06, 1343.43 443.00 C 1343.50 441.94, 1343.69 441.40, 1344.38 440.29 C 1345.07 439.17, 1345.59 438.55, 1346.88 437.42 C 1348.18 436.30, 1349.05 435.72, 1350.86 434.68 C 1352.68 433.64, 1353.81 433.10, 1355.96 432.23 C 1358.11 431.35, 1359.36 430.93, 1361.62 430.32 C 1363.88 429.71, 1365.12 429.46, 1367.25 429.16 C 1369.38 428.86, 1370.48 428.81, 1372.28 428.81 C 1374.07 428.80, 1374.91 428.93, 1376.23 429.11 C 1377.54 429.29, 1378.04 429.48, 1378.85 429.70 C 1379.66 429.91, 1379.91 429.99, 1380.26 430.19 C 1380.61 430.39, 1380.70 430.40, 1380.60 430.71 C 1380.51 431.02, 1380.37 431.21, 1379.79 431.73 C 1379.22 432.25, 1378.80 432.63, 1377.72 433.33 C 1376.65 434.02, 1375.93 434.43, 1374.41 435.20 C 1372.89 435.96, 1371.96 436.39, 1370.12 437.15 C 1368.27 437.90, 1367.20 438.31, 1365.21 438.99 C 1363.22 439.66, 1362.12 439.92, 1360.18 440.52 C 1358.25 441.11, 1357.13 441.34, 1355.53 441.98 C 1353.92 442.61, 1353.19 442.93, 1352.16 443.67 C 1351.13 444.40, 1350.61 444.81, 1350.38 445.64 C 1350.16 446.47, 1350.42 447.25, 1351.05 447.82" style="stroke: black; fill: black;"/><path d="M 1434.86,435.32 C 1435.31 434.60, 1435.33 433.93, 1435.01 432.95 C 1434.69 431.96, 1434.26 431.31, 1433.25 430.41 C 1432.24 429.51, 1431.42 429.02, 1429.95 428.45 C 1428.47 427.88, 1427.60 427.75, 1425.89 427.53 C 1424.18 427.31, 1423.24 427.26, 1421.39 427.35 C 1419.53 427.44, 1418.52 427.56, 1416.60 427.97 C 1414.68 428.37, 1413.66 428.65, 1411.79 429.37 C 1409.93 430.08, 1408.96 430.53, 1407.29 431.55 C 1405.61 432.57, 1404.78 433.16, 1403.41 434.47 C 1402.05 435.77, 1401.37 436.51, 1400.47 438.09 C 1399.57 439.66, 1399.19 440.60, 1398.91 442.34 C 1398.63 444.08, 1398.63 445.06, 1399.07 446.79 C 1399.50 448.53, 1399.91 449.48, 1401.07 451.02 C 1402.23 452.57, 1403.06 453.34, 1404.87 454.52 C 1406.69 455.69, 1407.81 456.17, 1410.13 456.91 C 1412.46 457.65, 1413.84 457.93, 1416.49 458.23 C 1419.13 458.54, 1420.62 458.55, 1423.36 458.43 C 1426.09 458.31, 1427.55 458.12, 1430.15 457.64 C 1432.75 457.16, 1434.07 456.83, 1436.34 456.04 C 1438.61 455.25, 1439.71 454.78, 1441.51 453.69 C 1443.30 452.60, 1444.12 451.97, 1445.33 450.60 C 1446.54 449.23, 1447.00 448.43, 1447.56 446.85 C 1448.11 445.26, 1448.23 444.34, 1448.11 442.68 C 1447.99 441.02, 1447.71 440.10, 1446.96 438.56 C 1446.22 437.02, 1445.57 436.26, 1444.38 434.97 C 1443.18 433.68, 1442.40 433.08, 1440.99 432.11 C 1439.57 431.13, 1438.67 430.70, 1437.30 430.10 C 1435.93 429.50, 1435.19 429.35, 1434.13 429.11 C 1433.07 428.87, 1432.68 428.80, 1432.00 428.91 C 1431.32 429.02, 1431.05 429.35, 1430.74 429.65 C 1430.42 429.95, 1430.51 430.22, 1430.43 430.42 C 1430.35 430.62, 1430.37 430.43, 1430.32 430.65 C 1430.28 430.87, 1430.10 431.07, 1430.18 431.49 C 1430.27 431.91, 1430.34 432.29, 1430.74 432.75 C 1431.15 433.22, 1431.43 433.30, 1432.21 433.81 C 1432.98 434.32, 1433.55 434.66, 1434.62 435.32 C 1435.69 435.97, 1436.46 436.33, 1437.57 437.09 C 1438.69 437.85, 1439.28 438.28, 1440.20 439.12 C 1441.12 439.95, 1441.55 440.44, 1442.16 441.28 C 1442.76 442.12, 1443.01 442.51, 1443.22 443.33 C 1443.42 444.14, 1443.46 444.55, 1443.20 445.35 C 1442.94 446.15, 1442.74 446.56, 1441.90 447.33 C 1441.07 448.10, 1440.48 448.50, 1439.03 449.20 C 1437.59 449.89, 1436.65 450.26, 1434.68 450.81 C 1432.72 451.36, 1431.52 451.62, 1429.22 451.94 C 1426.91 452.27, 1425.57 452.40, 1423.17 452.44 C 1420.76 452.48, 1419.45 452.42, 1417.20 452.15 C 1414.94 451.89, 1413.75 451.63, 1411.88 451.11 C 1410.00 450.59, 1409.16 450.27, 1407.83 449.57 C 1406.50 448.87, 1406.00 448.43, 1405.23 447.61 C 1404.45 446.79, 1404.21 446.36, 1403.95 445.49 C 1403.68 444.62, 1403.70 444.17, 1403.90 443.24 C 1404.10 442.30, 1404.33 441.77, 1404.96 440.81 C 1405.60 439.86, 1406.04 439.35, 1407.07 438.47 C 1408.10 437.59, 1408.77 437.15, 1410.11 436.42 C 1411.45 435.69, 1412.26 435.34, 1413.79 434.82 C 1415.32 434.30, 1416.18 434.10, 1417.76 433.81 C 1419.34 433.52, 1420.20 433.43, 1421.67 433.36 C 1423.14 433.29, 1423.93 433.31, 1425.13 433.46 C 1426.33 433.62, 1426.80 433.77, 1427.67 434.13 C 1428.54 434.49, 1428.80 434.87, 1429.46 435.28 C 1430.12 435.68, 1430.32 435.90, 1430.99 436.15 C 1431.65 436.41, 1432.01 436.73, 1432.79 436.56 C 1433.57 436.39, 1434.42 436.05, 1434.86 435.32" style="stroke: black; fill: black;"/><path d="M 1456.94,431.90 C 1456.23 432.12, 1456.00 432.40, 1455.54 433.18 C 1455.08 433.95, 1454.80 434.46, 1454.63 435.77 C 1454.46 437.07, 1454.55 437.96, 1454.69 439.68 C 1454.82 441.40, 1455.03 442.35, 1455.31 444.35 C 1455.59 446.35, 1455.75 447.44, 1456.08 449.68 C 1456.41 451.92, 1456.60 453.15, 1456.98 455.56 C 1457.36 457.97, 1457.56 459.23, 1457.96 461.74 C 1458.36 464.24, 1458.58 465.58, 1458.99 468.09 C 1459.40 470.60, 1459.63 471.91, 1460.02 474.30 C 1460.40 476.69, 1460.59 477.92, 1460.91 480.06 C 1461.22 482.20, 1461.35 483.28, 1461.60 485.00 C 1461.85 486.72, 1461.85 487.51, 1462.16 488.67 C 1462.48 489.84, 1462.77 490.22, 1463.16 490.84 C 1463.56 491.46, 1463.71 491.59, 1464.14 491.75 C 1464.57 491.92, 1464.91 491.88, 1465.31 491.65 C 1465.70 491.43, 1465.81 491.28, 1466.11 490.62 C 1466.41 489.96, 1466.65 489.59, 1466.81 488.36 C 1466.96 487.14, 1466.96 486.32, 1466.88 484.51 C 1466.81 482.70, 1466.68 481.55, 1466.43 479.34 C 1466.17 477.12, 1465.98 475.88, 1465.63 473.45 C 1465.28 471.02, 1465.06 469.71, 1464.69 467.19 C 1464.31 464.68, 1464.10 463.35, 1463.74 460.86 C 1463.38 458.36, 1463.20 457.09, 1462.87 454.70 C 1462.54 452.30, 1462.35 451.07, 1462.08 448.87 C 1461.81 446.67, 1461.67 445.61, 1461.53 443.69 C 1461.39 441.76, 1461.45 440.85, 1461.37 439.24 C 1461.28 437.63, 1461.33 436.81, 1461.11 435.63 C 1460.88 434.46, 1460.67 434.06, 1460.26 433.35 C 1459.86 432.64, 1459.74 432.37, 1459.07 432.08 C 1458.41 431.79, 1457.65 431.68, 1456.94 431.90" style="stroke: black; fill: black;"/><path d="M 1454.63,437.66 C 1455.52 437.62, 1456.00 436.95, 1457.00 436.25 C 1458.00 435.56, 1458.40 435.06, 1459.63 434.18 C 1460.85 433.31, 1461.53 432.64, 1463.12 431.87 C 1464.71 431.10, 1465.65 430.79, 1467.60 430.35 C 1469.55 429.91, 1470.73 429.77, 1472.86 429.67 C 1474.98 429.57, 1476.16 429.57, 1478.22 429.84 C 1480.27 430.11, 1481.32 430.37, 1483.12 431.01 C 1484.92 431.66, 1485.82 432.14, 1487.21 433.07 C 1488.61 434.01, 1489.22 434.57, 1490.10 435.68 C 1490.97 436.78, 1491.25 437.41, 1491.57 438.60 C 1491.89 439.78, 1491.92 440.42, 1491.71 441.60 C 1491.51 442.78, 1491.27 443.38, 1490.55 444.50 C 1489.83 445.62, 1489.32 446.20, 1488.13 447.20 C 1486.93 448.19, 1486.17 448.68, 1484.56 449.48 C 1482.95 450.27, 1481.96 450.63, 1480.07 451.18 C 1478.19 451.72, 1477.10 451.93, 1475.13 452.20 C 1473.16 452.47, 1472.08 452.53, 1470.23 452.52 C 1468.38 452.52, 1467.46 452.36, 1465.88 452.18 C 1464.31 451.99, 1463.66 451.80, 1462.37 451.61 C 1461.09 451.42, 1460.26 450.95, 1459.46 451.24 C 1458.66 451.53, 1458.13 452.16, 1458.37 453.07 C 1458.60 453.98, 1459.33 454.92, 1460.63 455.81 C 1461.94 456.69, 1463.00 457.03, 1464.89 457.49 C 1466.78 457.96, 1467.91 458.05, 1470.10 458.14 C 1472.29 458.24, 1473.52 458.22, 1475.84 457.96 C 1478.16 457.70, 1479.43 457.49, 1481.71 456.83 C 1483.98 456.17, 1485.19 455.75, 1487.23 454.67 C 1489.26 453.59, 1490.29 452.93, 1491.89 451.44 C 1493.50 449.95, 1494.26 449.04, 1495.24 447.22 C 1496.23 445.39, 1496.58 444.31, 1496.83 442.32 C 1497.07 440.33, 1496.97 439.22, 1496.45 437.28 C 1495.92 435.33, 1495.43 434.33, 1494.21 432.61 C 1492.98 430.90, 1492.13 430.07, 1490.31 428.71 C 1488.49 427.36, 1487.35 426.74, 1485.10 425.84 C 1482.84 424.94, 1481.54 424.61, 1479.05 424.20 C 1476.56 423.80, 1475.19 423.77, 1472.66 423.83 C 1470.13 423.88, 1468.82 424.01, 1466.38 424.48 C 1463.94 424.95, 1462.60 425.20, 1460.46 426.19 C 1458.31 427.17, 1457.16 428.01, 1455.66 429.39 C 1454.15 430.78, 1453.56 431.70, 1452.93 433.11 C 1452.31 434.51, 1452.19 435.51, 1452.53 436.42 C 1452.87 437.33, 1453.74 437.69, 1454.63 437.66" style="stroke: black; fill: black;"/><path d="M 1507.41,406.65 C 1506.75 407.09, 1506.67 407.52, 1506.39 408.41 C 1506.10 409.31, 1506.01 409.84, 1505.99 411.12 C 1505.98 412.41, 1506.15 413.22, 1506.31 414.85 C 1506.47 416.48, 1506.62 417.38, 1506.80 419.27 C 1506.98 421.16, 1507.04 422.18, 1507.22 424.28 C 1507.41 426.38, 1507.48 427.54, 1507.72 429.76 C 1507.97 431.99, 1508.10 433.17, 1508.43 435.42 C 1508.76 437.68, 1508.92 438.83, 1509.37 441.03 C 1509.82 443.23, 1510.07 444.36, 1510.66 446.41 C 1511.26 448.46, 1511.59 449.46, 1512.34 451.29 C 1513.08 453.13, 1513.47 454.02, 1514.39 455.59 C 1515.31 457.15, 1515.83 457.90, 1516.93 459.11 C 1518.02 460.32, 1518.61 460.80, 1519.86 461.63 C 1521.11 462.47, 1521.81 463.11, 1523.19 463.30 C 1524.56 463.48, 1525.98 463.26, 1526.75 462.56 C 1527.51 461.86, 1527.47 460.60, 1527.02 459.78 C 1526.57 458.96, 1525.38 458.88, 1524.50 458.45 C 1523.61 458.02, 1523.33 458.17, 1522.59 457.65 C 1521.85 457.12, 1521.53 456.75, 1520.81 455.82 C 1520.09 454.89, 1519.69 454.29, 1519.00 452.99 C 1518.30 451.69, 1517.95 450.94, 1517.35 449.33 C 1516.74 447.72, 1516.47 446.82, 1515.98 444.95 C 1515.50 443.07, 1515.28 442.03, 1514.91 439.97 C 1514.55 437.91, 1514.41 436.81, 1514.15 434.65 C 1513.88 432.49, 1513.78 431.34, 1513.59 429.18 C 1513.39 427.02, 1513.29 425.91, 1513.17 423.85 C 1513.05 421.78, 1513.04 420.78, 1512.97 418.87 C 1512.91 416.95, 1512.98 415.95, 1512.84 414.26 C 1512.70 412.57, 1512.60 411.71, 1512.28 410.41 C 1511.97 409.10, 1511.81 408.57, 1511.28 407.73 C 1510.76 406.90, 1510.44 406.46, 1509.67 406.24 C 1508.89 406.03, 1508.07 406.22, 1507.41 406.65" style="stroke: black; fill: black;"/><path d="M 1540.76,447.24 C 1541.38 447.69, 1541.78 447.63, 1542.68 447.62 C 1543.57 447.60, 1544.08 447.55, 1545.25 447.16 C 1546.42 446.77, 1547.16 446.35, 1548.51 445.65 C 1549.86 444.95, 1550.59 444.48, 1552.02 443.65 C 1553.46 442.83, 1554.27 442.40, 1555.68 441.53 C 1557.10 440.65, 1557.85 440.19, 1559.09 439.27 C 1560.32 438.34, 1560.91 437.89, 1561.85 436.89 C 1562.78 435.89, 1563.24 435.41, 1563.76 434.27 C 1564.28 433.13, 1564.52 432.44, 1564.44 431.20 C 1564.36 429.95, 1564.14 429.13, 1563.38 428.04 C 1562.62 426.94, 1561.96 426.40, 1560.63 425.74 C 1559.29 425.08, 1558.43 424.91, 1556.71 424.74 C 1554.98 424.56, 1553.97 424.62, 1551.99 424.87 C 1550.00 425.12, 1548.88 425.37, 1546.77 426.01 C 1544.67 426.65, 1543.52 427.07, 1541.48 428.07 C 1539.43 429.06, 1538.36 429.68, 1536.56 430.96 C 1534.75 432.25, 1533.86 432.96, 1532.46 434.49 C 1531.06 436.03, 1530.38 436.87, 1529.54 438.65 C 1528.69 440.42, 1528.36 441.44, 1528.23 443.35 C 1528.10 445.27, 1528.21 446.32, 1528.89 448.22 C 1529.56 450.12, 1530.11 451.13, 1531.59 452.84 C 1533.07 454.55, 1534.08 455.38, 1536.29 456.77 C 1538.50 458.17, 1539.82 458.83, 1542.64 459.82 C 1545.46 460.80, 1547.14 461.06, 1550.40 461.69 C 1553.66 462.32, 1555.46 462.57, 1558.94 462.98 C 1562.41 463.40, 1564.29 463.52, 1567.76 463.76 C 1571.23 464.00, 1573.02 464.06, 1576.29 464.18 C 1579.55 464.29, 1581.18 464.42, 1584.06 464.35 C 1586.95 464.28, 1588.38 464.19, 1590.69 463.82 C 1593.01 463.45, 1594.12 463.11, 1595.66 462.49 C 1597.19 461.86, 1597.90 461.39, 1598.36 460.70 C 1598.83 460.00, 1598.66 459.45, 1597.98 459.03 C 1597.30 458.60, 1596.53 458.65, 1594.97 458.57 C 1593.41 458.48, 1592.40 458.54, 1590.18 458.62 C 1587.96 458.70, 1586.64 458.83, 1583.87 458.96 C 1581.11 459.08, 1579.53 459.25, 1576.37 459.25 C 1573.21 459.26, 1571.44 459.22, 1568.08 458.99 C 1564.73 458.75, 1562.89 458.60, 1559.59 458.10 C 1556.30 457.60, 1554.56 457.28, 1551.59 456.48 C 1548.62 455.69, 1547.19 455.09, 1544.74 454.13 C 1542.29 453.17, 1541.16 452.70, 1539.34 451.68 C 1537.52 450.66, 1536.79 450.08, 1535.65 449.01 C 1534.51 447.94, 1534.15 447.39, 1533.65 446.33 C 1533.15 445.27, 1533.07 444.77, 1533.15 443.70 C 1533.23 442.63, 1533.42 442.07, 1534.05 440.98 C 1534.68 439.89, 1535.16 439.32, 1536.30 438.27 C 1537.44 437.21, 1538.21 436.67, 1539.74 435.72 C 1541.28 434.77, 1542.24 434.26, 1543.98 433.50 C 1545.73 432.74, 1546.73 432.41, 1548.48 431.93 C 1550.24 431.46, 1551.20 431.32, 1552.77 431.13 C 1554.34 430.94, 1555.12 430.98, 1556.32 430.98 C 1557.53 430.99, 1558.03 431.10, 1558.77 431.15 C 1559.52 431.21, 1559.74 431.21, 1560.06 431.24 C 1560.38 431.28, 1560.43 431.19, 1560.39 431.32 C 1560.36 431.45, 1560.28 431.54, 1559.89 431.88 C 1559.49 432.23, 1559.20 432.51, 1558.41 433.06 C 1557.62 433.61, 1557.08 433.96, 1555.95 434.63 C 1554.82 435.30, 1554.11 435.71, 1552.76 436.41 C 1551.41 437.12, 1550.63 437.50, 1549.20 438.15 C 1547.76 438.80, 1546.95 439.02, 1545.58 439.66 C 1544.20 440.29, 1543.39 440.59, 1542.32 441.31 C 1541.26 442.04, 1540.80 442.48, 1540.24 443.28 C 1539.68 444.08, 1539.44 444.54, 1539.54 445.33 C 1539.65 446.12, 1540.13 446.78, 1540.76 447.24" style="stroke: black; fill: black;"/></svg>